<svg width="1920" height="1080" xmlns="http://www.w3.org/2000/svg" xmlns:xlink="http://www.w3.org/1999/xlink" overflow="hidden"><defs><clipPath id="clip0"><rect x="0" y="0" width="1920" height="1080"/></clipPath><clipPath id="clip1"><path d="M46.2901 232.195 91.027 244.875 78.3445 289.605 33.6076 276.925Z" fill-rule="evenodd" clip-rule="evenodd"/></clipPath><clipPath id="clip2"><path d="M46.2901 232.195 91.027 244.875 78.3445 289.605 33.6076 276.925Z" fill-rule="evenodd" clip-rule="evenodd"/></clipPath><clipPath id="clip3"><path d="M46.2901 232.195 91.027 244.875 78.3445 289.605 33.6076 276.925Z" fill-rule="evenodd" clip-rule="evenodd"/></clipPath><clipPath id="clip4"><path d="M196.997 434.841 238.774 455.256 218.355 497.027 176.578 476.611Z" fill-rule="evenodd" clip-rule="evenodd"/></clipPath><clipPath id="clip5"><path d="M196.997 434.841 238.774 455.256 218.355 497.027 176.578 476.611Z" fill-rule="evenodd" clip-rule="evenodd"/></clipPath><clipPath id="clip6"><path d="M196.997 434.841 238.774 455.256 218.355 497.027 176.578 476.611Z" fill-rule="evenodd" clip-rule="evenodd"/></clipPath><clipPath id="clip7"><path d="M960 709.94 1005.62 700.962 1014.6 746.58 968.979 755.558Z" fill-rule="evenodd" clip-rule="evenodd"/></clipPath><clipPath id="clip8"><path d="M960 709.94 1005.62 700.962 1014.6 746.58 968.979 755.558Z" fill-rule="evenodd" clip-rule="evenodd"/></clipPath><clipPath id="clip9"><path d="M960 709.94 1005.62 700.962 1014.6 746.58 968.979 755.558Z" fill-rule="evenodd" clip-rule="evenodd"/></clipPath><clipPath id="clip10"><path d="M1384.04 35.2922 1425.9 15.049 1446.15 56.9032 1404.29 77.1465Z" fill-rule="evenodd" clip-rule="evenodd"/></clipPath><clipPath id="clip11"><path d="M1384.04 35.2922 1425.9 15.049 1446.15 56.9032 1404.29 77.1465Z" fill-rule="evenodd" clip-rule="evenodd"/></clipPath><clipPath id="clip12"><path d="M1384.04 35.2922 1425.9 15.049 1446.15 56.9032 1404.29 77.1465Z" fill-rule="evenodd" clip-rule="evenodd"/></clipPath><clipPath id="clip13"><path d="M1206.29 598.511 1251.92 589.533 1260.89 635.151 1215.27 644.128Z" fill-rule="evenodd" clip-rule="evenodd"/></clipPath><clipPath id="clip14"><path d="M1206.29 598.511 1251.92 589.533 1260.89 635.151 1215.27 644.128Z" fill-rule="evenodd" clip-rule="evenodd"/></clipPath><clipPath id="clip15"><path d="M1206.29 598.511 1251.92 589.533 1260.89 635.151 1215.27 644.128Z" fill-rule="evenodd" clip-rule="evenodd"/></clipPath><clipPath id="clip16"><path d="M537.7 328.023 581.586 343.392 566.214 387.271 522.328 371.902Z" fill-rule="evenodd" clip-rule="evenodd"/></clipPath><clipPath id="clip17"><path d="M537.7 328.023 581.586 343.392 566.214 387.271 522.328 371.902Z" fill-rule="evenodd" clip-rule="evenodd"/></clipPath><clipPath id="clip18"><path d="M537.7 328.023 581.586 343.392 566.214 387.271 522.328 371.902Z" fill-rule="evenodd" clip-rule="evenodd"/></clipPath><clipPath id="clip19"><path d="M1151.88 91.8668 1197.55 83.1306 1206.29 128.795 1160.62 137.531Z" fill-rule="evenodd" clip-rule="evenodd"/></clipPath><clipPath id="clip20"><path d="M1151.88 91.8668 1197.55 83.1306 1206.29 128.795 1160.62 137.531Z" fill-rule="evenodd" clip-rule="evenodd"/></clipPath><clipPath id="clip21"><path d="M1151.88 91.8668 1197.55 83.1306 1206.29 128.795 1160.62 137.531Z" fill-rule="evenodd" clip-rule="evenodd"/></clipPath><clipPath id="clip22"><path d="M572.372 670.264 611.135 695.944 585.452 734.701 546.688 709.022Z" fill-rule="evenodd" clip-rule="evenodd"/></clipPath><clipPath id="clip23"><path d="M572.372 670.264 611.135 695.944 585.452 734.701 546.688 709.022Z" fill-rule="evenodd" clip-rule="evenodd"/></clipPath><clipPath id="clip24"><path d="M572.372 670.264 611.135 695.944 585.452 734.701 546.688 709.022Z" fill-rule="evenodd" clip-rule="evenodd"/></clipPath><clipPath id="clip25"><path d="M853.009 464.503 890.335 492.23 862.604 529.55 825.278 501.823Z" fill-rule="evenodd" clip-rule="evenodd"/></clipPath><clipPath id="clip26"><path d="M853.009 464.503 890.335 492.23 862.604 529.55 825.278 501.823Z" fill-rule="evenodd" clip-rule="evenodd"/></clipPath><clipPath id="clip27"><path d="M853.009 464.503 890.335 492.23 862.604 529.55 825.278 501.823Z" fill-rule="evenodd" clip-rule="evenodd"/></clipPath><clipPath id="clip28"><path d="M963.97 259.395 1001.3 287.122 973.565 324.442 936.239 296.716Z" fill-rule="evenodd" clip-rule="evenodd"/></clipPath><clipPath id="clip29"><path d="M963.97 259.395 1001.3 287.122 973.565 324.442 936.239 296.716Z" fill-rule="evenodd" clip-rule="evenodd"/></clipPath><clipPath id="clip30"><path d="M963.97 259.395 1001.3 287.122 973.565 324.442 936.239 296.716Z" fill-rule="evenodd" clip-rule="evenodd"/></clipPath><clipPath id="clip31"><path d="M393.699 110.331 433.128 134.978 408.477 174.4 369.049 149.753Z" fill-rule="evenodd" clip-rule="evenodd"/></clipPath><clipPath id="clip32"><path d="M393.699 110.331 433.128 134.978 408.477 174.4 369.049 149.753Z" fill-rule="evenodd" clip-rule="evenodd"/></clipPath><clipPath id="clip33"><path d="M393.699 110.331 433.128 134.978 408.477 174.4 369.049 149.753Z" fill-rule="evenodd" clip-rule="evenodd"/></clipPath><clipPath id="clip34"><path d="M633.856 8.72388 672.34 34.8198 646.24 73.298 607.756 47.2021Z" fill-rule="evenodd" clip-rule="evenodd"/></clipPath><clipPath id="clip35"><path d="M633.856 8.72388 672.34 34.8198 646.24 73.298 607.756 47.2021Z" fill-rule="evenodd" clip-rule="evenodd"/></clipPath><clipPath id="clip36"><path d="M633.856 8.72388 672.34 34.8198 646.24 73.298 607.756 47.2021Z" fill-rule="evenodd" clip-rule="evenodd"/></clipPath><clipPath id="clip37"><path d="M1594.57 942.367 1638.93 928.432 1652.87 972.787 1608.51 986.722Z" fill-rule="evenodd" clip-rule="evenodd"/></clipPath><clipPath id="clip38"><path d="M1594.57 942.367 1638.93 928.432 1652.87 972.787 1608.51 986.722Z" fill-rule="evenodd" clip-rule="evenodd"/></clipPath><clipPath id="clip39"><path d="M1594.57 942.367 1638.93 928.432 1652.87 972.787 1608.51 986.722Z" fill-rule="evenodd" clip-rule="evenodd"/></clipPath><clipPath id="clip40"><path d="M160.497 683.081 197.823 710.807 170.092 748.128 132.766 720.401Z" fill-rule="evenodd" clip-rule="evenodd"/></clipPath><clipPath id="clip41"><path d="M160.497 683.081 197.823 710.807 170.092 748.128 132.766 720.401Z" fill-rule="evenodd" clip-rule="evenodd"/></clipPath><clipPath id="clip42"><path d="M160.497 683.081 197.823 710.807 170.092 748.128 132.766 720.401Z" fill-rule="evenodd" clip-rule="evenodd"/></clipPath><clipPath id="clip43"><path d="M1354.51 306.779 1397.59 289.273 1415.1 332.345 1372.02 349.85Z" fill-rule="evenodd" clip-rule="evenodd"/></clipPath><clipPath id="clip44"><path d="M1354.51 306.779 1397.59 289.273 1415.1 332.345 1372.02 349.85Z" fill-rule="evenodd" clip-rule="evenodd"/></clipPath><clipPath id="clip45"><path d="M1354.51 306.779 1397.59 289.273 1415.1 332.345 1372.02 349.85Z" fill-rule="evenodd" clip-rule="evenodd"/></clipPath><clipPath id="clip46"><path d="M1629.3 240.931 1674.98 232.195 1683.71 277.859 1638.04 286.596Z" fill-rule="evenodd" clip-rule="evenodd"/></clipPath><clipPath id="clip47"><path d="M1629.3 240.931 1674.98 232.195 1683.71 277.859 1638.04 286.596Z" fill-rule="evenodd" clip-rule="evenodd"/></clipPath><clipPath id="clip48"><path d="M1629.3 240.931 1674.98 232.195 1683.71 277.859 1638.04 286.596Z" fill-rule="evenodd" clip-rule="evenodd"/></clipPath><clipPath id="clip49"><path d="M1764.78 565.639 1807.46 547.186 1825.92 589.859 1783.24 608.313Z" fill-rule="evenodd" clip-rule="evenodd"/></clipPath><clipPath id="clip50"><path d="M1764.78 565.639 1807.46 547.186 1825.92 589.859 1783.24 608.313Z" fill-rule="evenodd" clip-rule="evenodd"/></clipPath><clipPath id="clip51"><path d="M1764.78 565.639 1807.46 547.186 1825.92 589.859 1783.24 608.313Z" fill-rule="evenodd" clip-rule="evenodd"/></clipPath><clipPath id="clip52"><path d="M1563.87 658.499 1606.34 639.566 1625.27 682.03 1582.81 700.962Z" fill-rule="evenodd" clip-rule="evenodd"/></clipPath><clipPath id="clip53"><path d="M1563.87 658.499 1606.34 639.566 1625.27 682.03 1582.81 700.962Z" fill-rule="evenodd" clip-rule="evenodd"/></clipPath><clipPath id="clip54"><path d="M1563.87 658.499 1606.34 639.566 1625.27 682.03 1582.81 700.962Z" fill-rule="evenodd" clip-rule="evenodd"/></clipPath><clipPath id="clip55"><path d="M1212 835.169 1253.86 814.926 1274.1 856.78 1232.24 877.023Z" fill-rule="evenodd" clip-rule="evenodd"/></clipPath><clipPath id="clip56"><path d="M1212 835.169 1253.86 814.926 1274.1 856.78 1232.24 877.023Z" fill-rule="evenodd" clip-rule="evenodd"/></clipPath><clipPath id="clip57"><path d="M1212 835.169 1253.86 814.926 1274.1 856.78 1232.24 877.023Z" fill-rule="evenodd" clip-rule="evenodd"/></clipPath><clipPath id="clip58"><path d="M770.869 918.255 816.541 909.519 825.278 955.183 779.607 963.92Z" fill-rule="evenodd" clip-rule="evenodd"/></clipPath><clipPath id="clip59"><path d="M770.869 918.255 816.541 909.519 825.278 955.183 779.607 963.92Z" fill-rule="evenodd" clip-rule="evenodd"/></clipPath><clipPath id="clip60"><path d="M770.869 918.255 816.541 909.519 825.278 955.183 779.607 963.92Z" fill-rule="evenodd" clip-rule="evenodd"/></clipPath><clipPath id="clip61"><path d="M310.651 863.385 347.977 891.111 320.246 928.432 282.92 900.705Z" fill-rule="evenodd" clip-rule="evenodd"/></clipPath><clipPath id="clip62"><path d="M310.651 863.385 347.977 891.111 320.246 928.432 282.92 900.705Z" fill-rule="evenodd" clip-rule="evenodd"/></clipPath><clipPath id="clip63"><path d="M310.651 863.385 347.977 891.111 320.246 928.432 282.92 900.705Z" fill-rule="evenodd" clip-rule="evenodd"/></clipPath><clipPath id="clip64"><path d="M159.339 48.1579 197.823 74.2538 171.723 112.732 133.239 86.6361Z" fill-rule="evenodd" clip-rule="evenodd"/></clipPath><clipPath id="clip65"><path d="M159.339 48.1579 197.823 74.2538 171.723 112.732 133.239 86.6361Z" fill-rule="evenodd" clip-rule="evenodd"/></clipPath><clipPath id="clip66"><path d="M159.339 48.1579 197.823 74.2538 171.723 112.732 133.239 86.6361Z" fill-rule="evenodd" clip-rule="evenodd"/></clipPath><clipPath id="clip67"><path d="M342.096 558.372 388.331 563.329 383.372 609.557 337.137 604.599Z" fill-rule="evenodd" clip-rule="evenodd"/></clipPath><clipPath id="clip68"><path d="M342.096 558.372 388.331 563.329 383.372 609.557 337.137 604.599Z" fill-rule="evenodd" clip-rule="evenodd"/></clipPath><clipPath id="clip69"><path d="M342.096 558.372 388.331 563.329 383.372 609.557 337.137 604.599Z" fill-rule="evenodd" clip-rule="evenodd"/></clipPath><clipPath id="clip70"><path d="M63.8899 510.143 107.514 526.24 91.4139 569.857 47.7902 553.76Z" fill-rule="evenodd" clip-rule="evenodd"/></clipPath><clipPath id="clip71"><path d="M63.8899 510.143 107.514 526.24 91.4139 569.857 47.7902 553.76Z" fill-rule="evenodd" clip-rule="evenodd"/></clipPath><clipPath id="clip72"><path d="M63.8899 510.143 107.514 526.24 91.4139 569.857 47.7902 553.76Z" fill-rule="evenodd" clip-rule="evenodd"/></clipPath></defs><g clip-path="url(#clip0)"><rect x="0" y="0" width="1920" height="1079.83" fill="#F1E9DB"/><g clip-path="url(#clip1)"><g clip-path="url(#clip2)"><g clip-path="url(#clip3)"><path d="M23.2466 22.8834C15.0523 22.8834 7.35537 33.93 7.35537 40.5907 7.35537 43.9006 11.1447 46.4932 15.982 46.4932 17.8014 46.4932 19.0212 46.091 20.0973 45.7362 21.0822 45.4115 21.9328 45.1311 23.2466 45.1311 24.5604 45.1311 25.411 45.4115 26.3959 45.7362 27.472 46.091 28.6918 46.4932 30.5112 46.4932 35.3485 46.4932 39.1378 43.9006 39.1378 40.5907 39.1378 33.93 31.4408 22.8834 23.2466 22.8834Z" fill="#00B050" fill-opacity="0.29" transform="matrix(0.962225 0.272739 -0.272782 0.962076 46.2901 232.195)"/><path d="M15.074 0C11.255 0 8.26344 4.58703 8.26344 10.4428 8.26344 16.2986 11.255 20.8856 15.074 20.8856 18.8929 20.8856 21.8845 16.2986 21.8845 10.4428 21.8845 4.58703 18.8929 0 15.074 0Z" fill="#00B050" fill-opacity="0.29" transform="matrix(0.962225 0.272739 -0.272782 0.962076 46.2901 232.195)"/><path d="M31.4192 0C27.6003 0 24.6087 4.58703 24.6087 10.4428 24.6087 16.2986 27.6003 20.8856 31.4192 20.8856 35.2382 20.8856 38.2298 16.2986 38.2298 10.4428 38.2298 4.58703 35.2382 0 31.4192 0Z" fill="#00B050" fill-opacity="0.29" transform="matrix(0.962225 0.272739 -0.272782 0.962076 46.2901 232.195)"/><path d="M9.83831 21.1756C7.80605 17.6854 4.4391 16.4361 2.10781 17.7747-0.246178 19.1261-0.736899 22.7018 1.18776 26.17 3.1234 29.6578 6.67904 30.8744 8.91834 29.5709 11.2072 28.2384 11.855 24.639 9.83831 21.1756Z" fill="#00B050" fill-opacity="0.29" transform="matrix(0.962225 0.272739 -0.272782 0.962076 46.2901 232.195)"/><path d="M44.3854 17.7746C42.0541 16.436 38.6872 17.6853 36.6549 21.1755 34.6382 24.6389 35.286 28.2383 37.5749 29.5708 39.8142 30.8744 43.3698 29.6578 45.3054 26.1699 47.2301 22.7017 46.7393 19.1261 44.3854 17.7746Z" fill="#00B050" fill-opacity="0.29" transform="matrix(0.962225 0.272739 -0.272782 0.962076 46.2901 232.195)"/></g></g></g><g clip-path="url(#clip4)"><g clip-path="url(#clip5)"><g clip-path="url(#clip6)"><path d="M23.247 22.8838C15.0525 22.8838 7.3555 33.9306 7.3555 40.5915 7.3555 43.9014 11.1449 46.4941 15.9823 46.4941 17.8018 46.4941 19.0215 46.0919 20.0977 45.7371 21.0826 45.4123 21.9332 45.1319 23.247 45.1319 24.5608 45.1319 25.4115 45.4123 26.3964 45.7371 27.4725 46.0919 28.6923 46.4941 30.5117 46.4941 35.3492 46.4941 39.1385 43.9014 39.1385 40.5915 39.1385 33.9306 31.4414 22.8838 23.247 22.8838Z" fill="#FF0000" fill-opacity="0.29" transform="matrix(0.898545 0.439097 -0.439165 0.898406 196.997 434.841)"/><path d="M15.0742 0C11.2552 0 8.26359 4.58711 8.26359 10.443 8.26359 16.2989 11.2552 20.886 15.0742 20.886 18.8933 20.886 21.8849 16.2989 21.8849 10.443 21.8849 4.58711 18.8933 0 15.0742 0Z" fill="#FF0000" fill-opacity="0.29" transform="matrix(0.898545 0.439097 -0.439165 0.898406 196.997 434.841)"/><path d="M31.4198 0C27.6008 0 24.6092 4.58711 24.6092 10.443 24.6092 16.2989 27.6008 20.886 31.4198 20.886 35.2389 20.886 38.2305 16.2989 38.2305 10.443 38.2305 4.58711 35.2389 0 31.4198 0Z" fill="#FF0000" fill-opacity="0.29" transform="matrix(0.898545 0.439097 -0.439165 0.898406 196.997 434.841)"/><path d="M9.83849 21.176C7.80619 17.6857 4.43918 16.4364 2.10785 17.775-0.246182 19.1265-0.736913 22.7022 1.18778 26.1704 3.12346 29.6583 6.67916 30.875 8.9185 29.5714 11.2074 28.2389 11.8553 24.6395 9.83849 21.176Z" fill="#FF0000" fill-opacity="0.29" transform="matrix(0.898545 0.439097 -0.439165 0.898406 196.997 434.841)"/><path d="M44.3862 17.7749C42.0549 16.4363 38.6879 17.6856 36.6556 21.1759 34.6388 24.6394 35.2866 28.2388 37.5756 29.5713 39.8149 30.875 43.3706 29.6583 45.3062 26.1703 47.231 22.7021 46.7401 19.1265 44.3862 17.7749Z" fill="#FF0000" fill-opacity="0.29" transform="matrix(0.898545 0.439097 -0.439165 0.898406 196.997 434.841)"/></g></g></g><g clip-path="url(#clip7)"><g clip-path="url(#clip8)"><g clip-path="url(#clip9)"><path d="M23.2465 22.8832C15.0522 22.8832 7.35533 33.9298 7.35533 40.5905 7.35533 43.9003 11.1446 46.4929 15.9819 46.4929 17.8013 46.4929 19.0211 46.0908 20.0972 45.736 21.0821 45.4112 21.9327 45.1308 23.2465 45.1308 24.5603 45.1308 25.4108 45.4112 26.3957 45.736 27.4719 46.0908 28.6916 46.4929 30.511 46.4929 35.3483 46.4929 39.1376 43.9003 39.1376 40.5905 39.1376 33.9298 31.4407 22.8832 23.2465 22.8832Z" fill="#FFC000" fill-opacity="0.29" transform="matrix(0.981325 -0.193096 0.193126 0.981174 960 709.94)"/><path d="M15.0739 0C11.2549 0 8.26339 4.587 8.26339 10.4427 8.26339 16.2985 11.2549 20.8855 15.0739 20.8855 18.8928 20.8855 21.8844 16.2985 21.8844 10.4427 21.8844 4.587 18.8928 0 15.0739 0Z" fill="#FFC000" fill-opacity="0.29" transform="matrix(0.981325 -0.193096 0.193126 0.981174 960 709.94)"/><path d="M31.4191 0C27.6001 0 24.6086 4.587 24.6086 10.4427 24.6086 16.2985 27.6001 20.8855 31.4191 20.8855 35.238 20.8855 38.2295 16.2985 38.2295 10.4427 38.2295 4.587 35.238 0 31.4191 0Z" fill="#FFC000" fill-opacity="0.29" transform="matrix(0.981325 -0.193096 0.193126 0.981174 960 709.94)"/><path d="M9.83825 21.1754C7.806 17.6853 4.43908 16.436 2.1078 17.7746-0.246176 19.126-0.736895 22.7016 1.18775 26.1698 3.12338 29.6576 6.679 30.8742 8.91829 29.5707 11.2072 28.2382 11.855 24.6389 9.83825 21.1754Z" fill="#FFC000" fill-opacity="0.29" transform="matrix(0.981325 -0.193096 0.193126 0.981174 960 709.94)"/><path d="M44.3851 17.7745C42.0539 16.4359 38.6869 17.6852 36.6547 21.1754 34.638 24.6388 35.2858 28.2381 37.5746 29.5706 39.8139 30.8742 43.3696 29.6576 45.3051 26.1697 47.2298 22.7015 46.739 19.126 44.3851 17.7745Z" fill="#FFC000" fill-opacity="0.29" transform="matrix(0.981325 -0.193096 0.193126 0.981174 960 709.94)"/></g></g></g><g clip-path="url(#clip10)"><g clip-path="url(#clip11)"><g clip-path="url(#clip12)"><path d="M23.247 22.8838C15.0525 22.8838 7.3555 33.9306 7.3555 40.5915 7.3555 43.9013 11.1449 46.494 15.9823 46.494 17.8018 46.494 19.0215 46.0918 20.0977 45.737 21.0826 45.4123 21.9332 45.1319 23.247 45.1319 24.5608 45.1319 25.4114 45.4123 26.3963 45.737 27.4725 46.0918 28.6923 46.494 30.5117 46.494 35.3492 46.494 39.1385 43.9013 39.1385 40.5915 39.1385 33.9306 31.4414 22.8838 23.247 22.8838Z" stroke="#92D050" stroke-width="0.0907915" fill="#92D050" fill-opacity="0.29" transform="matrix(0.900346 -0.435394 0.435461 0.900207 1384.04 35.2922)"/><path d="M15.0742 0C11.2552 0 8.26359 4.58711 8.26359 10.443 8.26359 16.2989 11.2552 20.886 15.0742 20.886 18.8933 20.886 21.8849 16.2989 21.8849 10.443 21.8849 4.58711 18.8933 0 15.0742 0Z" stroke="#92D050" stroke-width="0.0907915" fill="#92D050" fill-opacity="0.29" transform="matrix(0.900346 -0.435394 0.435461 0.900207 1384.04 35.2922)"/><path d="M31.4198 0C27.6007 0 24.6091 4.58711 24.6091 10.443 24.6091 16.2989 27.6007 20.886 31.4198 20.886 35.2388 20.886 38.2304 16.2989 38.2304 10.443 38.2304 4.58711 35.2388 0 31.4198 0Z" stroke="#92D050" stroke-width="0.0907915" fill="#92D050" fill-opacity="0.29" transform="matrix(0.900346 -0.435394 0.435461 0.900207 1384.04 35.2922)"/><path d="M9.83848 21.1759C7.80618 17.6857 4.43918 16.4364 2.10785 17.775-0.246182 19.1265-0.736912 22.7022 1.18778 26.1704 3.12345 29.6583 6.67916 30.8749 8.9185 29.5714 11.2074 28.2389 11.8553 24.6395 9.83848 21.1759Z" stroke="#92D050" stroke-width="0.0907915" fill="#92D050" fill-opacity="0.29" transform="matrix(0.900346 -0.435394 0.435461 0.900207 1384.04 35.2922)"/><path d="M44.3862 17.7749C42.0548 16.4363 38.6878 17.6856 36.6555 21.1758 34.6388 24.6394 35.2866 28.2388 37.5755 29.5713 39.8149 30.8749 43.3706 29.6583 45.3062 26.1703 47.2309 22.7021 46.7401 19.1265 44.3862 17.7749Z" stroke="#92D050" stroke-width="0.0907915" fill="#92D050" fill-opacity="0.29" transform="matrix(0.900346 -0.435394 0.435461 0.900207 1384.04 35.2922)"/></g></g></g><g clip-path="url(#clip13)"><g clip-path="url(#clip14)"><g clip-path="url(#clip15)"><path d="M23.2465 22.8832C15.0522 22.8832 7.35533 33.9298 7.35533 40.5905 7.35533 43.9003 11.1446 46.4929 15.9819 46.4929 17.8013 46.4929 19.0211 46.0908 20.0972 45.736 21.0821 45.4112 21.9327 45.1308 23.2465 45.1308 24.5603 45.1308 25.4108 45.4112 26.3957 45.736 27.4719 46.0908 28.6916 46.4929 30.511 46.4929 35.3483 46.4929 39.1376 43.9003 39.1376 40.5905 39.1376 33.9298 31.4407 22.8832 23.2465 22.8832Z" fill="#FF0000" fill-opacity="0.29" transform="matrix(0.981325 -0.193096 0.193126 0.981174 1206.29 598.511)"/><path d="M15.0739 0C11.2549 0 8.26339 4.587 8.26339 10.4427 8.26339 16.2985 11.2549 20.8855 15.0739 20.8855 18.8928 20.8855 21.8844 16.2985 21.8844 10.4427 21.8844 4.587 18.8928 0 15.0739 0Z" fill="#FF0000" fill-opacity="0.29" transform="matrix(0.981325 -0.193096 0.193126 0.981174 1206.29 598.511)"/><path d="M31.4191 0C27.6001 0 24.6086 4.587 24.6086 10.4427 24.6086 16.2985 27.6001 20.8855 31.4191 20.8855 35.238 20.8855 38.2295 16.2985 38.2295 10.4427 38.2295 4.587 35.238 0 31.4191 0Z" fill="#FF0000" fill-opacity="0.29" transform="matrix(0.981325 -0.193096 0.193126 0.981174 1206.29 598.511)"/><path d="M9.83825 21.1754C7.806 17.6853 4.43908 16.436 2.1078 17.7746-0.246176 19.126-0.736895 22.7016 1.18775 26.1698 3.12338 29.6576 6.679 30.8742 8.91829 29.5707 11.2072 28.2382 11.855 24.6389 9.83825 21.1754Z" fill="#FF0000" fill-opacity="0.29" transform="matrix(0.981325 -0.193096 0.193126 0.981174 1206.29 598.511)"/><path d="M44.3851 17.7745C42.0539 16.4359 38.6869 17.6852 36.6547 21.1754 34.638 24.6388 35.2858 28.2381 37.5746 29.5706 39.8139 30.8742 43.3696 29.6576 45.3051 26.1697 47.2298 22.7015 46.739 19.126 44.3851 17.7745Z" fill="#FF0000" fill-opacity="0.29" transform="matrix(0.981325 -0.193096 0.193126 0.981174 1206.29 598.511)"/></g></g></g><g clip-path="url(#clip16)"><g clip-path="url(#clip17)"><g clip-path="url(#clip18)"><path d="M23.2467 22.8835C15.0523 22.8835 7.35541 33.9301 7.35541 40.591 7.35541 43.9008 11.1447 46.4935 15.9821 46.4935 17.8015 46.4935 19.0213 46.0913 20.0974 45.7365 21.0823 45.4118 21.9329 45.1313 23.2467 45.1313 24.5605 45.1313 25.4111 45.4118 26.396 45.7365 27.4722 46.0913 28.6919 46.4935 30.5113 46.4935 35.3487 46.4935 39.138 43.9008 39.138 40.591 39.138 33.9301 31.441 22.8835 23.2467 22.8835Z" fill="#C55A11" fill-opacity="0.29" transform="matrix(0.943911 0.330564 -0.330615 0.943766 537.7 328.023)"/><path d="M15.074 0C11.255 0 8.26348 4.58705 8.26348 10.4429 8.26348 16.2987 11.255 20.8857 15.074 20.8857 18.893 20.8857 21.8846 16.2987 21.8846 10.4429 21.8846 4.58705 18.893 0 15.074 0Z" fill="#C55A11" fill-opacity="0.29" transform="matrix(0.943911 0.330564 -0.330615 0.943766 537.7 328.023)"/><path d="M31.4194 0C27.6004 0 24.6088 4.58705 24.6088 10.4429 24.6088 16.2987 27.6004 20.8857 31.4194 20.8857 35.2384 20.8857 38.23 16.2987 38.23 10.4429 38.23 4.58705 35.2384 0 31.4194 0Z" fill="#C55A11" fill-opacity="0.29" transform="matrix(0.943911 0.330564 -0.330615 0.943766 537.7 328.023)"/><path d="M9.83836 21.1757C7.80609 17.6855 4.43913 16.4362 2.10782 17.7748-0.246179 19.1262-0.736903 22.7019 1.18776 26.1701 3.12342 29.6579 6.67907 30.8746 8.91839 29.571 11.2073 28.2385 11.8551 24.6392 9.83836 21.1757Z" fill="#C55A11" fill-opacity="0.29" transform="matrix(0.943911 0.330564 -0.330615 0.943766 537.7 328.023)"/><path d="M44.3856 17.7747C42.0543 16.4361 38.6874 17.6854 36.6551 21.1756 34.6383 24.6391 35.2862 28.2384 37.5751 29.5709 39.8144 30.8746 43.37 29.6579 45.3056 26.17 47.2304 22.7018 46.7395 19.1262 44.3856 17.7747Z" fill="#C55A11" fill-opacity="0.29" transform="matrix(0.943911 0.330564 -0.330615 0.943766 537.7 328.023)"/></g></g></g><g clip-path="url(#clip19)"><g clip-path="url(#clip20)"><g clip-path="url(#clip21)"><path d="M23.2465 22.8832C15.0522 22.8832 7.35533 33.9298 7.35533 40.5905 7.35533 43.9003 11.1446 46.4929 15.9819 46.4929 17.8013 46.4929 19.0211 46.0907 20.0972 45.736 21.0821 45.4112 21.9327 45.1308 23.2465 45.1308 24.5602 45.1308 25.4108 45.4112 26.3957 45.736 27.4719 46.0907 28.6916 46.4929 30.511 46.4929 35.3483 46.4929 39.1376 43.9003 39.1376 40.5905 39.1376 33.9298 31.4407 22.8832 23.2465 22.8832Z" stroke="#92D050" stroke-width="0.0907893" fill="#002060" fill-opacity="0.29" transform="matrix(0.982333 -0.187904 0.187933 0.982182 1151.88 91.8668)"/><path d="M15.0739 0C11.2549 0 8.26339 4.587 8.26339 10.4427 8.26339 16.2985 11.2549 20.8855 15.0739 20.8855 18.8928 20.8855 21.8844 16.2985 21.8844 10.4427 21.8844 4.587 18.8928 0 15.0739 0Z" stroke="#92D050" stroke-width="0.0907893" fill="#002060" fill-opacity="0.29" transform="matrix(0.982333 -0.187904 0.187933 0.982182 1151.88 91.8668)"/><path d="M31.419 0C27.6001 0 24.6086 4.587 24.6086 10.4427 24.6086 16.2985 27.6001 20.8855 31.419 20.8855 35.238 20.8855 38.2295 16.2985 38.2295 10.4427 38.2295 4.587 35.238 0 31.419 0Z" stroke="#92D050" stroke-width="0.0907893" fill="#002060" fill-opacity="0.29" transform="matrix(0.982333 -0.187904 0.187933 0.982182 1151.88 91.8668)"/><path d="M9.83825 21.1754C7.806 17.6853 4.43907 16.436 2.1078 17.7746-0.246176 19.126-0.736895 22.7016 1.18775 26.1698 3.12338 29.6576 6.679 30.8742 8.91829 29.5707 11.2072 28.2382 11.855 24.6389 9.83825 21.1754Z" stroke="#92D050" stroke-width="0.0907893" fill="#002060" fill-opacity="0.29" transform="matrix(0.982333 -0.187904 0.187933 0.982182 1151.88 91.8668)"/><path d="M44.3851 17.7745C42.0538 16.4359 38.6869 17.6852 36.6547 21.1753 34.638 24.6388 35.2858 28.2381 37.5746 29.5706 39.8139 30.8742 43.3695 29.6576 45.3051 26.1697 47.2298 22.7015 46.739 19.126 44.3851 17.7745Z" stroke="#92D050" stroke-width="0.0907893" fill="#002060" fill-opacity="0.29" transform="matrix(0.982333 -0.187904 0.187933 0.982182 1151.88 91.8668)"/></g></g></g><g clip-path="url(#clip22)"><g clip-path="url(#clip23)"><g clip-path="url(#clip24)"><path d="M23.2474 22.8842C15.0528 22.8842 7.35563 33.9312 7.35563 40.5922 7.35563 43.9021 11.1451 46.4949 15.9826 46.4949 17.8021 46.4949 19.0218 46.0927 20.098 45.7379 21.083 45.4131 21.9336 45.1327 23.2474 45.1327 24.5613 45.1327 25.4119 45.4131 26.3968 45.7379 27.473 46.0927 28.6928 46.4949 30.5122 46.4949 35.3498 46.4949 39.1392 43.9021 39.1392 40.5922 39.1392 33.9312 31.442 22.8842 23.2474 22.8842Z" fill="#FFC000" fill-opacity="0.29" transform="matrix(0.833714 0.552306 -0.552391 0.833585 572.372 670.264)"/><path d="M15.0745 0C11.2554 0 8.26373 4.58719 8.26373 10.4432 8.26373 16.2992 11.2554 20.8864 15.0745 20.8864 18.8936 20.8864 21.8853 16.2992 21.8853 10.4432 21.8853 4.58719 18.8936 0 15.0745 0Z" fill="#FFC000" fill-opacity="0.29" transform="matrix(0.833714 0.552306 -0.552391 0.833585 572.372 670.264)"/><path d="M31.4204 0C27.6012 0 24.6096 4.58719 24.6096 10.4432 24.6096 16.2992 27.6012 20.8864 31.4204 20.8864 35.2395 20.8864 38.2311 16.2992 38.2311 10.4432 38.2311 4.58719 35.2395 0 31.4204 0Z" fill="#FFC000" fill-opacity="0.29" transform="matrix(0.833714 0.552306 -0.552391 0.833585 572.372 670.264)"/><path d="M9.83866 21.1763C7.80632 17.686 4.43926 16.4367 2.10789 17.7753-0.246187 19.1268-0.736925 22.7026 1.1878 26.1709 3.12351 29.6588 6.67928 30.8755 8.91866 29.5719 11.2076 28.2394 11.8555 24.6399 9.83866 21.1763Z" fill="#FFC000" fill-opacity="0.29" transform="matrix(0.833714 0.552306 -0.552391 0.833585 572.372 670.264)"/><path d="M44.387 17.7752C42.0556 16.4366 38.6885 17.6859 36.6562 21.1762 34.6394 24.6398 35.2872 28.2393 37.5762 29.5718 39.8156 30.8755 43.3713 29.6588 45.307 26.1708 47.2318 22.7025 46.741 19.1268 44.387 17.7752Z" fill="#FFC000" fill-opacity="0.29" transform="matrix(0.833714 0.552306 -0.552391 0.833585 572.372 670.264)"/></g></g></g><g clip-path="url(#clip25)"><g clip-path="url(#clip26)"><g clip-path="url(#clip27)"><path d="M23.2476 22.8844C15.0529 22.8844 7.35569 33.9314 7.35569 40.5925 7.35569 43.9025 11.1451 46.4952 15.9827 46.4952 17.8022 46.4952 19.022 46.093 20.0982 45.7382 21.0831 45.4135 21.9338 45.1331 23.2476 45.1331 24.5615 45.1331 25.4121 45.4135 26.397 45.7382 27.4732 46.093 28.693 46.4952 30.5125 46.4952 35.3501 46.4952 39.1395 43.9025 39.1395 40.5925 39.1395 33.9314 31.4422 22.8844 23.2476 22.8844Z" fill="#00B050" fill-opacity="0.29" transform="matrix(0.802791 0.596335 -0.596427 0.802667 853.009 464.503)"/><path d="M15.0746 0C11.2555 0 8.2638 4.58723 8.2638 10.4433 8.2638 16.2993 11.2555 20.8865 15.0746 20.8865 18.8938 20.8865 21.8854 16.2993 21.8854 10.4433 21.8854 4.58723 18.8938 0 15.0746 0Z" fill="#00B050" fill-opacity="0.29" transform="matrix(0.802791 0.596335 -0.596427 0.802667 853.009 464.503)"/><path d="M31.4206 0C27.6015 0 24.6098 4.58723 24.6098 10.4433 24.6098 16.2993 27.6015 20.8865 31.4206 20.8865 35.2397 20.8865 38.2314 16.2993 38.2314 10.4433 38.2314 4.58723 35.2397 0 31.4206 0Z" fill="#00B050" fill-opacity="0.29" transform="matrix(0.802791 0.596335 -0.596427 0.802667 853.009 464.503)"/><path d="M9.83873 21.1765C7.80638 17.6862 4.43929 16.4368 2.1079 17.7754-0.246189 19.127-0.736931 22.7027 1.18781 26.1711 3.12353 29.659 6.67933 30.8757 8.91873 29.5721 11.2077 28.2396 11.8556 24.6401 9.83873 21.1765Z" fill="#00B050" fill-opacity="0.29" transform="matrix(0.802791 0.596335 -0.596427 0.802667 853.009 464.503)"/><path d="M44.3873 17.7753C42.0559 16.4367 38.6888 17.6861 36.6565 21.1764 34.6397 24.64 35.2875 28.2395 37.5765 29.5721 39.8159 30.8757 43.3717 29.659 45.3073 26.171 47.2322 22.7027 46.7413 19.127 44.3873 17.7753Z" fill="#00B050" fill-opacity="0.29" transform="matrix(0.802791 0.596335 -0.596427 0.802667 853.009 464.503)"/></g></g></g><g clip-path="url(#clip28)"><g clip-path="url(#clip29)"><g clip-path="url(#clip30)"><path d="M23.2476 22.8844C15.0529 22.8844 7.35569 33.9314 7.35569 40.5925 7.35569 43.9025 11.1451 46.4952 15.9827 46.4952 17.8022 46.4952 19.022 46.093 20.0982 45.7382 21.0831 45.4135 21.9338 45.1331 23.2476 45.1331 24.5615 45.1331 25.4121 45.4135 26.397 45.7382 27.4732 46.093 28.693 46.4952 30.5125 46.4952 35.3501 46.4952 39.1395 43.9025 39.1395 40.5925 39.1395 33.9314 31.4422 22.8844 23.2476 22.8844Z" fill="#FF0000" fill-opacity="0.29" transform="matrix(0.802791 0.596335 -0.596427 0.802667 963.97 259.395)"/><path d="M15.0746 0C11.2555 0 8.2638 4.58723 8.2638 10.4433 8.2638 16.2993 11.2555 20.8865 15.0746 20.8865 18.8938 20.8865 21.8854 16.2993 21.8854 10.4433 21.8854 4.58723 18.8938 0 15.0746 0Z" fill="#FF0000" fill-opacity="0.29" transform="matrix(0.802791 0.596335 -0.596427 0.802667 963.97 259.395)"/><path d="M31.4206 0C27.6015 0 24.6098 4.58723 24.6098 10.4433 24.6098 16.2993 27.6015 20.8865 31.4206 20.8865 35.2397 20.8865 38.2314 16.2993 38.2314 10.4433 38.2314 4.58723 35.2397 0 31.4206 0Z" fill="#FF0000" fill-opacity="0.29" transform="matrix(0.802791 0.596335 -0.596427 0.802667 963.97 259.395)"/><path d="M9.83873 21.1765C7.80638 17.6862 4.43929 16.4368 2.1079 17.7754-0.246189 19.127-0.736931 22.7027 1.18781 26.1711 3.12353 29.659 6.67933 30.8757 8.91873 29.5721 11.2077 28.2396 11.8556 24.6401 9.83873 21.1765Z" fill="#FF0000" fill-opacity="0.29" transform="matrix(0.802791 0.596335 -0.596427 0.802667 963.97 259.395)"/><path d="M44.3873 17.7753C42.0559 16.4367 38.6888 17.6861 36.6565 21.1764 34.6397 24.64 35.2875 28.2395 37.5765 29.5721 39.8159 30.8757 43.3717 29.659 45.3073 26.171 47.2322 22.7027 46.7413 19.127 44.3873 17.7753Z" fill="#FF0000" fill-opacity="0.29" transform="matrix(0.802791 0.596335 -0.596427 0.802667 963.97 259.395)"/></g></g></g><g clip-path="url(#clip31)"><g clip-path="url(#clip32)"><g clip-path="url(#clip33)"><path d="M23.2473 22.8841C15.0527 22.8841 7.3556 33.931 7.3556 40.592 7.3556 43.902 11.145 46.4947 15.9825 46.4947 17.802 46.4947 19.0218 46.0925 20.098 45.7377 21.0829 45.413 21.9335 45.1325 23.2473 45.1325 24.5612 45.1325 25.4118 45.413 26.3967 45.7377 27.4729 46.0925 28.6927 46.4947 30.5121 46.4947 35.3497 46.4947 39.1391 43.902 39.1391 40.592 39.1391 33.931 31.4418 22.8841 23.2473 22.8841Z" fill="#C55A11" fill-opacity="0.29" transform="matrix(0.848019 0.530094 -0.530176 0.847888 393.699 110.331)"/><path d="M15.0744 0C11.2553 0 8.2637 4.58717 8.2637 10.4431 8.2637 16.2991 11.2553 20.8863 15.0744 20.8863 18.8936 20.8863 21.8852 16.2991 21.8852 10.4431 21.8852 4.58717 18.8936 0 15.0744 0Z" fill="#C55A11" fill-opacity="0.29" transform="matrix(0.848019 0.530094 -0.530176 0.847888 393.699 110.331)"/><path d="M31.4202 0C27.6011 0 24.6095 4.58717 24.6095 10.4431 24.6095 16.2991 27.6011 20.8863 31.4202 20.8863 35.2393 20.8863 38.231 16.2991 38.231 10.4431 38.231 4.58717 35.2393 0 31.4202 0Z" fill="#C55A11" fill-opacity="0.29" transform="matrix(0.848019 0.530094 -0.530176 0.847888 393.699 110.331)"/><path d="M9.83862 21.1762C7.80629 17.686 4.43924 16.4366 2.10788 17.7752-0.246186 19.1267-0.736923 22.7025 1.18779 26.1708 3.1235 29.6587 6.67925 30.8754 8.91862 29.5718 11.2076 28.2393 11.8554 24.6398 9.83862 21.1762Z" fill="#C55A11" fill-opacity="0.29" transform="matrix(0.848019 0.530094 -0.530176 0.847888 393.699 110.331)"/><path d="M44.3868 17.7751C42.0554 16.4365 38.6884 17.6859 36.6561 21.1761 34.6393 24.6397 35.2871 28.2392 37.5761 29.5717 39.8154 30.8754 43.3712 29.6587 45.3068 26.1707 47.2316 22.7024 46.7408 19.1267 44.3868 17.7751Z" fill="#C55A11" fill-opacity="0.29" transform="matrix(0.848019 0.530094 -0.530176 0.847888 393.699 110.331)"/></g></g></g><g clip-path="url(#clip34)"><g clip-path="url(#clip35)"><g clip-path="url(#clip36)"><path d="M23.2475 22.8842C15.0528 22.8842 7.35564 33.9312 7.35564 40.5923 7.35564 43.9022 11.1451 46.4949 15.9826 46.4949 17.8021 46.4949 19.0219 46.0927 20.0981 45.7379 21.083 45.4132 21.9336 45.1328 23.2475 45.1328 24.5613 45.1328 25.4119 45.4132 26.3969 45.7379 27.4731 46.0927 28.6928 46.4949 30.5123 46.4949 35.3499 46.4949 39.1393 43.9022 39.1393 40.5923 39.1393 33.9312 31.442 22.8842 23.2475 22.8842Z" fill="#FFC000" fill-opacity="0.29" transform="matrix(0.827706 0.561264 -0.561351 0.827578 633.856 8.72388)"/><path d="M15.0745 0C11.2554 0 8.26375 4.5872 8.26375 10.4432 8.26375 16.2992 11.2554 20.8864 15.0745 20.8864 18.8937 20.8864 21.8853 16.2992 21.8853 10.4432 21.8853 4.5872 18.8937 0 15.0745 0Z" fill="#FFC000" fill-opacity="0.29" transform="matrix(0.827706 0.561264 -0.561351 0.827578 633.856 8.72388)"/><path d="M31.4204 0C27.6013 0 24.6096 4.5872 24.6096 10.4432 24.6096 16.2992 27.6013 20.8864 31.4204 20.8864 35.2395 20.8864 38.2312 16.2992 38.2312 10.4432 38.2312 4.5872 35.2395 0 31.4204 0Z" fill="#FFC000" fill-opacity="0.29" transform="matrix(0.827706 0.561264 -0.561351 0.827578 633.856 8.72388)"/><path d="M9.83867 21.1764C7.80633 17.6861 4.43927 16.4367 2.10789 17.7753-0.246187 19.1269-0.736926 22.7026 1.1878 26.1709 3.12351 29.6589 6.67929 30.8755 8.91867 29.572 11.2076 28.2394 11.8555 24.64 9.83867 21.1764Z" fill="#FFC000" fill-opacity="0.29" transform="matrix(0.827706 0.561264 -0.561351 0.827578 633.856 8.72388)"/><path d="M44.387 17.7752C42.0557 16.4366 38.6886 17.686 36.6563 21.1763 34.6395 24.6399 35.2873 28.2393 37.5763 29.5719 39.8156 30.8755 43.3714 29.6589 45.307 26.1708 47.2319 22.7025 46.741 19.1269 44.387 17.7752Z" fill="#FFC000" fill-opacity="0.29" transform="matrix(0.827706 0.561264 -0.561351 0.827578 633.856 8.72388)"/></g></g></g><g clip-path="url(#clip37)"><g clip-path="url(#clip38)"><g clip-path="url(#clip39)"><path d="M23.2467 22.8834C15.0523 22.8834 7.35539 33.93 7.35539 40.5908 7.35539 43.9007 11.1447 46.4933 15.9821 46.4933 17.8015 46.4933 19.0212 46.0911 20.0974 45.7363 21.0823 45.4116 21.9329 45.1312 23.2467 45.1312 24.5605 45.1312 25.411 45.4116 26.3959 45.7363 27.4721 46.0911 28.6918 46.4933 30.5112 46.4933 35.3486 46.4933 39.1379 43.9007 39.1379 40.5908 39.1379 33.93 31.4409 22.8834 23.2467 22.8834Z" fill="#C55A11" fill-opacity="0.29" transform="matrix(0.954159 -0.299724 0.29977 0.954011 1594.57 942.367)"/><path d="M15.074 0C11.255 0 8.26346 4.58704 8.26346 10.4428 8.26346 16.2986 11.255 20.8857 15.074 20.8857 18.893 20.8857 21.8845 16.2986 21.8845 10.4428 21.8845 4.58704 18.893 0 15.074 0Z" fill="#C55A11" fill-opacity="0.29" transform="matrix(0.954159 -0.299724 0.29977 0.954011 1594.57 942.367)"/><path d="M31.4193 0C27.6003 0 24.6088 4.58704 24.6088 10.4428 24.6088 16.2986 27.6003 20.8857 31.4193 20.8857 35.2383 20.8857 38.2299 16.2986 38.2299 10.4428 38.2299 4.58704 35.2383 0 31.4193 0Z" fill="#C55A11" fill-opacity="0.29" transform="matrix(0.954159 -0.299724 0.29977 0.954011 1594.57 942.367)"/><path d="M9.83833 21.1756C7.80606 17.6854 4.43911 16.4361 2.10782 17.7747-0.246178 19.1262-0.736901 22.7018 1.18776 26.17 3.12341 29.6578 6.67906 30.8745 8.91836 29.5709 11.2072 28.2384 11.8551 24.6391 9.83833 21.1756Z" fill="#C55A11" fill-opacity="0.29" transform="matrix(0.954159 -0.299724 0.29977 0.954011 1594.57 942.367)"/><path d="M44.3855 17.7746C42.0542 16.436 38.6872 17.6853 36.655 21.1755 34.6382 24.639 35.2861 28.2383 37.575 29.5708 39.8143 30.8745 43.3699 29.6578 45.3055 26.1699 47.2302 22.7017 46.7394 19.1262 44.3855 17.7746Z" fill="#C55A11" fill-opacity="0.29" transform="matrix(0.954159 -0.299724 0.29977 0.954011 1594.57 942.367)"/></g></g></g><g clip-path="url(#clip40)"><g clip-path="url(#clip41)"><g clip-path="url(#clip42)"><path d="M23.2476 22.8844C15.0529 22.8844 7.35569 33.9314 7.35569 40.5925 7.35569 43.9025 11.1451 46.4952 15.9827 46.4952 17.8022 46.4952 19.022 46.093 20.0982 45.7382 21.0831 45.4135 21.9338 45.1331 23.2476 45.1331 24.5615 45.1331 25.4121 45.4135 26.397 45.7382 27.4732 46.093 28.693 46.4952 30.5125 46.4952 35.3501 46.4952 39.1395 43.9025 39.1395 40.5925 39.1395 33.9314 31.4422 22.8844 23.2476 22.8844Z" fill="#00B050" fill-opacity="0.29" transform="matrix(0.802791 0.596335 -0.596427 0.802667 160.497 683.081)"/><path d="M15.0746 0C11.2555 0 8.2638 4.58723 8.2638 10.4433 8.2638 16.2993 11.2555 20.8865 15.0746 20.8865 18.8938 20.8865 21.8854 16.2993 21.8854 10.4433 21.8854 4.58723 18.8938 0 15.0746 0Z" fill="#00B050" fill-opacity="0.29" transform="matrix(0.802791 0.596335 -0.596427 0.802667 160.497 683.081)"/><path d="M31.4206 0C27.6015 0 24.6098 4.58723 24.6098 10.4433 24.6098 16.2993 27.6015 20.8865 31.4206 20.8865 35.2397 20.8865 38.2314 16.2993 38.2314 10.4433 38.2314 4.58723 35.2397 0 31.4206 0Z" fill="#00B050" fill-opacity="0.29" transform="matrix(0.802791 0.596335 -0.596427 0.802667 160.497 683.081)"/><path d="M9.83873 21.1765C7.80638 17.6862 4.43929 16.4368 2.1079 17.7754-0.246189 19.127-0.736931 22.7027 1.18781 26.1711 3.12353 29.659 6.67933 30.8757 8.91873 29.5721 11.2077 28.2396 11.8556 24.6401 9.83873 21.1765Z" fill="#00B050" fill-opacity="0.29" transform="matrix(0.802791 0.596335 -0.596427 0.802667 160.497 683.081)"/><path d="M44.3873 17.7753C42.0559 16.4367 38.6888 17.6861 36.6565 21.1764 34.6397 24.64 35.2875 28.2395 37.5765 29.5721 39.8159 30.8757 43.3717 29.659 45.3073 26.171 47.2322 22.7027 46.7413 19.127 44.3873 17.7753Z" fill="#00B050" fill-opacity="0.29" transform="matrix(0.802791 0.596335 -0.596427 0.802667 160.497 683.081)"/></g></g></g><g clip-path="url(#clip43)"><g clip-path="url(#clip44)"><g clip-path="url(#clip45)"><path d="M23.2468 22.8836C15.0524 22.8836 7.35545 33.9303 7.35545 40.5912 7.35545 43.901 11.1448 46.4937 15.9822 46.4937 17.8016 46.4937 19.0214 46.0915 20.0975 45.7367 21.0824 45.412 21.933 45.1316 23.2468 45.1316 24.5607 45.1316 25.4113 45.412 26.3962 45.7367 27.4723 46.0915 28.6921 46.4937 30.5115 46.4937 35.3489 46.4937 39.1382 43.901 39.1382 40.5912 39.1382 33.9303 31.4412 22.8836 23.2468 22.8836Z" fill="#FFC000" fill-opacity="0.29" transform="matrix(0.926531 -0.376511 0.37657 0.926388 1354.51 306.779)"/><path d="M15.0741 0C11.2551 0 8.26353 4.58707 8.26353 10.4429 8.26353 16.2988 11.2551 20.8858 15.0741 20.8858 18.8931 20.8858 21.8847 16.2988 21.8847 10.4429 21.8847 4.58707 18.8931 0 15.0741 0Z" fill="#FFC000" fill-opacity="0.29" transform="matrix(0.926531 -0.376511 0.37657 0.926388 1354.51 306.779)"/><path d="M31.4196 0C27.6005 0 24.609 4.58707 24.609 10.4429 24.609 16.2988 27.6005 20.8858 31.4196 20.8858 35.2386 20.8858 38.2302 16.2988 38.2302 10.4429 38.2302 4.58707 35.2386 0 31.4196 0Z" fill="#FFC000" fill-opacity="0.29" transform="matrix(0.926531 -0.376511 0.37657 0.926388 1354.51 306.779)"/><path d="M9.83841 21.1758C7.80613 17.6856 4.43915 16.4362 2.10783 17.7748-0.24618 19.1263-0.736907 22.702 1.18777 26.1702 3.12343 29.6581 6.67911 30.8747 8.91843 29.5712 11.2073 28.2386 11.8552 24.6393 9.83841 21.1758Z" fill="#FFC000" fill-opacity="0.29" transform="matrix(0.926531 -0.376511 0.37657 0.926388 1354.51 306.779)"/><path d="M44.3859 17.7748C42.0545 16.4362 38.6876 17.6855 36.6553 21.1757 34.6385 24.6392 35.2863 28.2386 37.5753 29.5711 39.8146 30.8747 43.3703 29.6581 45.3058 26.1701 47.2306 22.7019 46.7398 19.1263 44.3859 17.7748Z" fill="#FFC000" fill-opacity="0.29" transform="matrix(0.926531 -0.376511 0.37657 0.926388 1354.51 306.779)"/></g></g></g><g clip-path="url(#clip46)"><g clip-path="url(#clip47)"><g clip-path="url(#clip48)"><path d="M23.2465 22.8832C15.0522 22.8832 7.35533 33.9298 7.35533 40.5905 7.35533 43.9003 11.1446 46.4929 15.9819 46.4929 17.8013 46.4929 19.0211 46.0907 20.0972 45.736 21.0821 45.4112 21.9327 45.1308 23.2465 45.1308 24.5602 45.1308 25.4108 45.4112 26.3957 45.736 27.4719 46.0907 28.6916 46.4929 30.511 46.4929 35.3483 46.4929 39.1376 43.9003 39.1376 40.5905 39.1376 33.9298 31.4407 22.8832 23.2465 22.8832Z" stroke="#92D050" stroke-width="0.0907893" fill="#002060" fill-opacity="0.29" transform="matrix(0.982333 -0.187904 0.187933 0.982182 1629.3 240.931)"/><path d="M15.0739 0C11.2549 0 8.26339 4.587 8.26339 10.4427 8.26339 16.2985 11.2549 20.8855 15.0739 20.8855 18.8928 20.8855 21.8844 16.2985 21.8844 10.4427 21.8844 4.587 18.8928 0 15.0739 0Z" stroke="#92D050" stroke-width="0.0907893" fill="#002060" fill-opacity="0.29" transform="matrix(0.982333 -0.187904 0.187933 0.982182 1629.3 240.931)"/><path d="M31.419 0C27.6001 0 24.6086 4.587 24.6086 10.4427 24.6086 16.2985 27.6001 20.8855 31.419 20.8855 35.238 20.8855 38.2295 16.2985 38.2295 10.4427 38.2295 4.587 35.238 0 31.419 0Z" stroke="#92D050" stroke-width="0.0907893" fill="#002060" fill-opacity="0.29" transform="matrix(0.982333 -0.187904 0.187933 0.982182 1629.3 240.931)"/><path d="M9.83825 21.1754C7.806 17.6853 4.43907 16.436 2.1078 17.7746-0.246176 19.126-0.736895 22.7016 1.18775 26.1698 3.12338 29.6576 6.679 30.8742 8.91829 29.5707 11.2072 28.2382 11.855 24.6389 9.83825 21.1754Z" stroke="#92D050" stroke-width="0.0907893" fill="#002060" fill-opacity="0.29" transform="matrix(0.982333 -0.187904 0.187933 0.982182 1629.3 240.931)"/><path d="M44.3851 17.7745C42.0538 16.4359 38.6869 17.6852 36.6547 21.1753 34.638 24.6388 35.2858 28.2381 37.5746 29.5706 39.8139 30.8742 43.3695 29.6576 45.3051 26.1697 47.2298 22.7015 46.739 19.126 44.3851 17.7745Z" stroke="#92D050" stroke-width="0.0907893" fill="#002060" fill-opacity="0.29" transform="matrix(0.982333 -0.187904 0.187933 0.982182 1629.3 240.931)"/></g></g></g><g clip-path="url(#clip49)"><g clip-path="url(#clip50)"><g clip-path="url(#clip51)"><path d="M23.2469 22.8837C15.0525 22.8837 7.35546 33.9304 7.35546 40.5913 7.35546 43.9011 11.1448 46.4938 15.9822 46.4938 17.8017 46.4938 19.0214 46.0916 20.0976 45.7368 21.0825 45.4121 21.9331 45.1317 23.2469 45.1317 24.5607 45.1317 25.4113 45.4121 26.3962 45.7368 27.4724 46.0916 28.6921 46.4938 30.5116 46.4938 35.349 46.4938 39.1383 43.9011 39.1383 40.5913 39.1383 33.9304 31.4412 22.8837 23.2469 22.8837Z" stroke="#92D050" stroke-width="0.090791" fill="#92D050" fill-opacity="0.29" transform="matrix(0.917975 -0.396905 0.396966 0.917833 1764.78 565.639)"/><path d="M15.0742 0C11.2551 0 8.26355 4.58709 8.26355 10.4429 8.26355 16.2988 11.2551 20.8859 15.0742 20.8859 18.8932 20.8859 21.8848 16.2988 21.8848 10.4429 21.8848 4.58709 18.8932 0 15.0742 0Z" stroke="#92D050" stroke-width="0.090791" fill="#92D050" fill-opacity="0.29" transform="matrix(0.917975 -0.396905 0.396966 0.917833 1764.78 565.639)"/><path d="M31.4196 0C27.6006 0 24.609 4.58709 24.609 10.4429 24.609 16.2988 27.6006 20.8859 31.4196 20.8859 35.2387 20.8859 38.2303 16.2988 38.2303 10.4429 38.2303 4.58709 35.2387 0 31.4196 0Z" stroke="#92D050" stroke-width="0.090791" fill="#92D050" fill-opacity="0.29" transform="matrix(0.917975 -0.396905 0.396966 0.917833 1764.78 565.639)"/><path d="M9.83843 21.1758C7.80614 17.6856 4.43916 16.4363 2.10784 17.7749-0.246181 19.1264-0.736908 22.702 1.18777 26.1703 3.12344 29.6581 6.67912 30.8748 8.91845 29.5712 11.2074 28.2387 11.8552 24.6394 9.83843 21.1758Z" stroke="#92D050" stroke-width="0.090791" fill="#92D050" fill-opacity="0.29" transform="matrix(0.917975 -0.396905 0.396966 0.917833 1764.78 565.639)"/><path d="M44.386 17.7748C42.0546 16.4362 38.6877 17.6855 36.6554 21.1757 34.6386 24.6393 35.2864 28.2386 37.5753 29.5711 39.8147 30.8748 43.3704 29.6581 45.3059 26.1702 47.2307 22.702 46.7399 19.1264 44.386 17.7748Z" stroke="#92D050" stroke-width="0.090791" fill="#92D050" fill-opacity="0.29" transform="matrix(0.917975 -0.396905 0.396966 0.917833 1764.78 565.639)"/></g></g></g><g clip-path="url(#clip52)"><g clip-path="url(#clip53)"><g clip-path="url(#clip54)"><path d="M23.2469 22.8837C15.0525 22.8837 7.35547 33.9304 7.35547 40.5913 7.35547 43.9012 11.1448 46.4939 15.9823 46.4939 17.8017 46.4939 19.0214 46.0917 20.0976 45.7369 21.0825 45.4121 21.9331 45.1317 23.2469 45.1317 24.5607 45.1317 25.4113 45.4121 26.3962 45.7369 27.4724 46.0917 28.6922 46.4939 30.5116 46.4939 35.349 46.4939 39.1384 43.9012 39.1384 40.5913 39.1384 33.9304 31.4413 22.8837 23.2469 22.8837Z" stroke="#92D050" stroke-width="0.0907911" fill="#FF0000" fill-opacity="0.29" transform="matrix(0.913449 -0.407207 0.40727 0.913308 1563.87 658.499)"/><path d="M15.0742 0C11.2551 0 8.26356 4.58709 8.26356 10.443 8.26356 16.2988 11.2551 20.8859 15.0742 20.8859 18.8932 20.8859 21.8848 16.2988 21.8848 10.443 21.8848 4.58709 18.8932 0 15.0742 0Z" stroke="#92D050" stroke-width="0.0907911" fill="#FF0000" fill-opacity="0.29" transform="matrix(0.913449 -0.407207 0.40727 0.913308 1563.87 658.499)"/><path d="M31.4197 0C27.6006 0 24.6091 4.58709 24.6091 10.443 24.6091 16.2988 27.6006 20.8859 31.4197 20.8859 35.2387 20.8859 38.2303 16.2988 38.2303 10.443 38.2303 4.58709 35.2387 0 31.4197 0Z" stroke="#92D050" stroke-width="0.0907911" fill="#FF0000" fill-opacity="0.29" transform="matrix(0.913449 -0.407207 0.40727 0.913308 1563.87 658.499)"/><path d="M9.83844 21.1759C7.80615 17.6856 4.43916 16.4363 2.10784 17.7749-0.246181 19.1264-0.736909 22.7021 1.18777 26.1703 3.12344 29.6582 6.67913 30.8748 8.91847 29.5713 11.2074 28.2388 11.8552 24.6394 9.83844 21.1759Z" stroke="#92D050" stroke-width="0.0907911" fill="#FF0000" fill-opacity="0.29" transform="matrix(0.913449 -0.407207 0.40727 0.913308 1563.87 658.499)"/><path d="M44.386 17.7748C42.0547 16.4362 38.6877 17.6856 36.6554 21.1758 34.6386 24.6393 35.2865 28.2387 37.5754 29.5712 39.8147 30.8748 43.3704 29.6582 45.306 26.1702 47.2308 22.702 46.7399 19.1264 44.386 17.7748Z" stroke="#92D050" stroke-width="0.0907911" fill="#FF0000" fill-opacity="0.29" transform="matrix(0.913449 -0.407207 0.40727 0.913308 1563.87 658.499)"/></g></g></g><g clip-path="url(#clip55)"><g clip-path="url(#clip56)"><g clip-path="url(#clip57)"><path d="M23.247 22.8838C15.0525 22.8838 7.3555 33.9306 7.3555 40.5915 7.3555 43.9013 11.1449 46.494 15.9823 46.494 17.8018 46.494 19.0215 46.0918 20.0977 45.737 21.0826 45.4123 21.9332 45.1319 23.247 45.1319 24.5608 45.1319 25.4114 45.4123 26.3963 45.737 27.4725 46.0918 28.6923 46.494 30.5117 46.494 35.3492 46.494 39.1385 43.9013 39.1385 40.5915 39.1385 33.9306 31.4414 22.8838 23.247 22.8838Z" stroke="#92D050" stroke-width="0.0907915" fill="#92D050" fill-opacity="0.29" transform="matrix(0.900346 -0.435394 0.435461 0.900207 1212 835.169)"/><path d="M15.0742 0C11.2552 0 8.26359 4.58711 8.26359 10.443 8.26359 16.2989 11.2552 20.886 15.0742 20.886 18.8933 20.886 21.8849 16.2989 21.8849 10.443 21.8849 4.58711 18.8933 0 15.0742 0Z" stroke="#92D050" stroke-width="0.0907915" fill="#92D050" fill-opacity="0.29" transform="matrix(0.900346 -0.435394 0.435461 0.900207 1212 835.169)"/><path d="M31.4198 0C27.6007 0 24.6091 4.58711 24.6091 10.443 24.6091 16.2989 27.6007 20.886 31.4198 20.886 35.2388 20.886 38.2304 16.2989 38.2304 10.443 38.2304 4.58711 35.2388 0 31.4198 0Z" stroke="#92D050" stroke-width="0.0907915" fill="#92D050" fill-opacity="0.29" transform="matrix(0.900346 -0.435394 0.435461 0.900207 1212 835.169)"/><path d="M9.83848 21.1759C7.80618 17.6857 4.43918 16.4364 2.10785 17.775-0.246182 19.1265-0.736912 22.7022 1.18778 26.1704 3.12345 29.6583 6.67916 30.8749 8.9185 29.5714 11.2074 28.2389 11.8553 24.6395 9.83848 21.1759Z" stroke="#92D050" stroke-width="0.0907915" fill="#92D050" fill-opacity="0.29" transform="matrix(0.900346 -0.435394 0.435461 0.900207 1212 835.169)"/><path d="M44.3862 17.7749C42.0548 16.4363 38.6878 17.6856 36.6555 21.1758 34.6388 24.6394 35.2866 28.2388 37.5755 29.5713 39.8149 30.8749 43.3706 29.6583 45.3062 26.1703 47.2309 22.7021 46.7401 19.1265 44.3862 17.7749Z" stroke="#92D050" stroke-width="0.0907915" fill="#92D050" fill-opacity="0.29" transform="matrix(0.900346 -0.435394 0.435461 0.900207 1212 835.169)"/></g></g></g><g clip-path="url(#clip58)"><g clip-path="url(#clip59)"><g clip-path="url(#clip60)"><path d="M23.2465 22.8832C15.0522 22.8832 7.35533 33.9298 7.35533 40.5905 7.35533 43.9003 11.1446 46.4929 15.9819 46.4929 17.8013 46.4929 19.0211 46.0907 20.0972 45.736 21.0821 45.4112 21.9327 45.1308 23.2465 45.1308 24.5602 45.1308 25.4108 45.4112 26.3957 45.736 27.4719 46.0907 28.6916 46.4929 30.511 46.4929 35.3483 46.4929 39.1376 43.9003 39.1376 40.5905 39.1376 33.9298 31.4407 22.8832 23.2465 22.8832Z" stroke="#92D050" stroke-width="0.0907893" fill="#002060" fill-opacity="0.29" transform="matrix(0.982333 -0.187904 0.187933 0.982182 770.869 918.255)"/><path d="M15.0739 0C11.2549 0 8.26339 4.587 8.26339 10.4427 8.26339 16.2985 11.2549 20.8855 15.0739 20.8855 18.8928 20.8855 21.8844 16.2985 21.8844 10.4427 21.8844 4.587 18.8928 0 15.0739 0Z" stroke="#92D050" stroke-width="0.0907893" fill="#002060" fill-opacity="0.29" transform="matrix(0.982333 -0.187904 0.187933 0.982182 770.869 918.255)"/><path d="M31.419 0C27.6001 0 24.6086 4.587 24.6086 10.4427 24.6086 16.2985 27.6001 20.8855 31.419 20.8855 35.238 20.8855 38.2295 16.2985 38.2295 10.4427 38.2295 4.587 35.238 0 31.419 0Z" stroke="#92D050" stroke-width="0.0907893" fill="#002060" fill-opacity="0.29" transform="matrix(0.982333 -0.187904 0.187933 0.982182 770.869 918.255)"/><path d="M9.83825 21.1754C7.806 17.6853 4.43907 16.436 2.1078 17.7746-0.246176 19.126-0.736895 22.7016 1.18775 26.1698 3.12338 29.6576 6.679 30.8742 8.91829 29.5707 11.2072 28.2382 11.855 24.6389 9.83825 21.1754Z" stroke="#92D050" stroke-width="0.0907893" fill="#002060" fill-opacity="0.29" transform="matrix(0.982333 -0.187904 0.187933 0.982182 770.869 918.255)"/><path d="M44.3851 17.7745C42.0538 16.4359 38.6869 17.6852 36.6547 21.1753 34.638 24.6388 35.2858 28.2381 37.5746 29.5706 39.8139 30.8742 43.3695 29.6576 45.3051 26.1697 47.2298 22.7015 46.739 19.126 44.3851 17.7745Z" stroke="#92D050" stroke-width="0.0907893" fill="#002060" fill-opacity="0.29" transform="matrix(0.982333 -0.187904 0.187933 0.982182 770.869 918.255)"/></g></g></g><g clip-path="url(#clip61)"><g clip-path="url(#clip62)"><g clip-path="url(#clip63)"><path d="M23.2476 22.8844C15.0529 22.8844 7.35569 33.9314 7.35569 40.5925 7.35569 43.9025 11.1451 46.4952 15.9827 46.4952 17.8022 46.4952 19.022 46.093 20.0982 45.7382 21.0831 45.4135 21.9338 45.1331 23.2476 45.1331 24.5615 45.1331 25.4121 45.4135 26.397 45.7382 27.4732 46.093 28.693 46.4952 30.5125 46.4952 35.3501 46.4952 39.1395 43.9025 39.1395 40.5925 39.1395 33.9314 31.4422 22.8844 23.2476 22.8844Z" fill="#FF0000" fill-opacity="0.29" transform="matrix(0.802791 0.596335 -0.596427 0.802667 310.651 863.385)"/><path d="M15.0746 0C11.2555 0 8.2638 4.58723 8.2638 10.4433 8.2638 16.2993 11.2555 20.8865 15.0746 20.8865 18.8938 20.8865 21.8854 16.2993 21.8854 10.4433 21.8854 4.58723 18.8938 0 15.0746 0Z" fill="#FF0000" fill-opacity="0.29" transform="matrix(0.802791 0.596335 -0.596427 0.802667 310.651 863.385)"/><path d="M31.4206 0C27.6015 0 24.6098 4.58723 24.6098 10.4433 24.6098 16.2993 27.6015 20.8865 31.4206 20.8865 35.2397 20.8865 38.2314 16.2993 38.2314 10.4433 38.2314 4.58723 35.2397 0 31.4206 0Z" fill="#FF0000" fill-opacity="0.29" transform="matrix(0.802791 0.596335 -0.596427 0.802667 310.651 863.385)"/><path d="M9.83873 21.1765C7.80638 17.6862 4.43929 16.4368 2.1079 17.7754-0.246189 19.127-0.736931 22.7027 1.18781 26.1711 3.12353 29.659 6.67933 30.8757 8.91873 29.5721 11.2077 28.2396 11.8556 24.6401 9.83873 21.1765Z" fill="#FF0000" fill-opacity="0.29" transform="matrix(0.802791 0.596335 -0.596427 0.802667 310.651 863.385)"/><path d="M44.3873 17.7753C42.0559 16.4367 38.6888 17.6861 36.6565 21.1764 34.6397 24.64 35.2875 28.2395 37.5765 29.5721 39.8159 30.8757 43.3717 29.659 45.3073 26.171 47.2322 22.7027 46.7413 19.127 44.3873 17.7753Z" fill="#FF0000" fill-opacity="0.29" transform="matrix(0.802791 0.596335 -0.596427 0.802667 310.651 863.385)"/></g></g></g><g clip-path="url(#clip64)"><g clip-path="url(#clip65)"><g clip-path="url(#clip66)"><path d="M23.2475 22.8842C15.0528 22.8842 7.35564 33.9312 7.35564 40.5923 7.35564 43.9022 11.1451 46.4949 15.9826 46.4949 17.8021 46.4949 19.0219 46.0927 20.0981 45.7379 21.083 45.4132 21.9336 45.1328 23.2475 45.1328 24.5613 45.1328 25.4119 45.4132 26.3969 45.7379 27.4731 46.0927 28.6928 46.4949 30.5123 46.4949 35.3499 46.4949 39.1393 43.9022 39.1393 40.5923 39.1393 33.9312 31.442 22.8842 23.2475 22.8842Z" fill="#FFC000" fill-opacity="0.29" transform="matrix(0.827706 0.561264 -0.561351 0.827578 159.339 48.1579)"/><path d="M15.0745 0C11.2554 0 8.26375 4.5872 8.26375 10.4432 8.26375 16.2992 11.2554 20.8864 15.0745 20.8864 18.8937 20.8864 21.8853 16.2992 21.8853 10.4432 21.8853 4.5872 18.8937 0 15.0745 0Z" fill="#FFC000" fill-opacity="0.29" transform="matrix(0.827706 0.561264 -0.561351 0.827578 159.339 48.1579)"/><path d="M31.4204 0C27.6013 0 24.6096 4.5872 24.6096 10.4432 24.6096 16.2992 27.6013 20.8864 31.4204 20.8864 35.2395 20.8864 38.2312 16.2992 38.2312 10.4432 38.2312 4.5872 35.2395 0 31.4204 0Z" fill="#FFC000" fill-opacity="0.29" transform="matrix(0.827706 0.561264 -0.561351 0.827578 159.339 48.1579)"/><path d="M9.83867 21.1764C7.80633 17.6861 4.43927 16.4367 2.10789 17.7753-0.246187 19.1269-0.736926 22.7026 1.1878 26.1709 3.12351 29.6589 6.67929 30.8755 8.91867 29.572 11.2076 28.2394 11.8555 24.64 9.83867 21.1764Z" fill="#FFC000" fill-opacity="0.29" transform="matrix(0.827706 0.561264 -0.561351 0.827578 159.339 48.1579)"/><path d="M44.387 17.7752C42.0557 16.4366 38.6886 17.686 36.6563 21.1763 34.6395 24.6399 35.2873 28.2393 37.5763 29.5719 39.8156 30.8755 43.3714 29.6589 45.307 26.1708 47.2319 22.7025 46.741 19.1269 44.387 17.7752Z" fill="#FFC000" fill-opacity="0.29" transform="matrix(0.827706 0.561264 -0.561351 0.827578 159.339 48.1579)"/></g></g></g><g clip-path="url(#clip67)"><g clip-path="url(#clip68)"><g clip-path="url(#clip69)"><path d="M23.2464 22.8832C15.0521 22.8832 7.3553 33.9296 7.3553 40.5903 7.3553 43.9001 11.1445 46.4927 15.9819 46.4927 17.8013 46.4927 19.021 46.0906 20.0971 45.7358 21.082 45.4111 21.9326 45.1307 23.2464 45.1307 24.5602 45.1307 25.4107 45.4111 26.3956 45.7358 27.4718 46.0906 28.6915 46.4927 30.5109 46.4927 35.3482 46.4927 39.1375 43.9001 39.1375 40.5903 39.1375 33.9296 31.4405 22.8832 23.2464 22.8832Z" fill="#C55A11" fill-opacity="0.29" transform="matrix(0.99445 0.106635 -0.106651 0.994296 342.096 558.372)"/><path d="M15.0738 0C11.2549 0 8.26336 4.58698 8.26336 10.4427 8.26336 16.2984 11.2549 20.8854 15.0738 20.8854 18.8928 20.8854 21.8843 16.2984 21.8843 10.4427 21.8843 4.58698 18.8928 0 15.0738 0Z" fill="#C55A11" fill-opacity="0.29" transform="matrix(0.99445 0.106635 -0.106651 0.994296 342.096 558.372)"/><path d="M31.4189 0C27.6 0 24.6085 4.58698 24.6085 10.4427 24.6085 16.2984 27.6 20.8854 31.4189 20.8854 35.2379 20.8854 38.2294 16.2984 38.2294 10.4427 38.2294 4.58698 35.2379 0 31.4189 0Z" fill="#C55A11" fill-opacity="0.29" transform="matrix(0.99445 0.106635 -0.106651 0.994296 342.096 558.372)"/><path d="M9.83821 21.1754C7.80597 17.6852 4.43906 16.4359 2.10779 17.7745-0.246175 19.126-0.736892 22.7015 1.18774 26.1697 3.12337 29.6575 6.67897 30.8741 8.91825 29.5706 11.2071 28.2381 11.8549 24.6388 9.83821 21.1754Z" fill="#C55A11" fill-opacity="0.29" transform="matrix(0.99445 0.106635 -0.106651 0.994296 342.096 558.372)"/><path d="M44.385 17.7744C42.0537 16.4358 38.6868 17.6851 36.6545 21.1753 34.6378 24.6387 35.2856 28.238 37.5745 29.5705 39.8138 30.8741 43.3694 29.6575 45.3049 26.1696 47.2296 22.7014 46.7388 19.126 44.385 17.7744Z" fill="#C55A11" fill-opacity="0.29" transform="matrix(0.99445 0.106635 -0.106651 0.994296 342.096 558.372)"/></g></g></g><g clip-path="url(#clip70)"><g clip-path="url(#clip71)"><g clip-path="url(#clip72)"><path d="M23.2468 22.8835C15.0524 22.8835 7.35542 33.9302 7.35542 40.591 7.35542 43.9009 11.1447 46.4935 15.9822 46.4935 17.8016 46.4935 19.0213 46.0913 20.0975 45.7366 21.0824 45.4118 21.933 45.1314 23.2468 45.1314 24.5606 45.1314 25.4112 45.4118 26.3961 45.7366 27.4722 46.0913 28.692 46.4935 30.5114 46.4935 35.3488 46.4935 39.1381 43.9009 39.1381 40.591 39.1381 33.9302 31.4411 22.8835 23.2468 22.8835Z" fill="#FFC000" fill-opacity="0.29" transform="matrix(0.938276 0.346226 -0.346279 0.938131 63.8899 510.143)"/><path d="M15.0741 0C11.2551 0 8.2635 4.58706 8.2635 10.4429 8.2635 16.2987 11.2551 20.8858 15.0741 20.8858 18.8931 20.8858 21.8846 16.2987 21.8846 10.4429 21.8846 4.58706 18.8931 0 15.0741 0Z" fill="#FFC000" fill-opacity="0.29" transform="matrix(0.938276 0.346226 -0.346279 0.938131 63.8899 510.143)"/><path d="M31.4195 0C27.6004 0 24.6089 4.58706 24.6089 10.4429 24.6089 16.2987 27.6004 20.8858 31.4195 20.8858 35.2385 20.8858 38.23 16.2987 38.23 10.4429 38.23 4.58706 35.2385 0 31.4195 0Z" fill="#FFC000" fill-opacity="0.29" transform="matrix(0.938276 0.346226 -0.346279 0.938131 63.8899 510.143)"/><path d="M9.83838 21.1757C7.8061 17.6855 4.43913 16.4362 2.10783 17.7748-0.24618 19.1263-0.736904 22.7019 1.18776 26.1701 3.12342 29.658 6.67909 30.8746 8.9184 29.5711 11.2073 28.2386 11.8551 24.6392 9.83838 21.1757Z" fill="#FFC000" fill-opacity="0.29" transform="matrix(0.938276 0.346226 -0.346279 0.938131 63.8899 510.143)"/><path d="M44.3857 17.7747C42.0544 16.4361 38.6874 17.6854 36.6552 21.1756 34.6384 24.6391 35.2862 28.2385 37.5751 29.571 39.8144 30.8746 43.3701 29.658 45.3057 26.17 47.2304 22.7018 46.7396 19.1263 44.3857 17.7747Z" fill="#FFC000" fill-opacity="0.29" transform="matrix(0.938276 0.346226 -0.346279 0.938131 63.8899 510.143)"/></g></g></g></g></svg>