<?xml version="1.0" encoding="utf-8"?>
<!-- Generator: Adobe Illustrator 16.0.0, SVG Export Plug-In . SVG Version: 6.00 Build 0)  -->
<!DOCTYPE svg PUBLIC "-//W3C//DTD SVG 1.1//EN" "http://www.w3.org/Graphics/SVG/1.1/DTD/svg11.dtd">
<svg version="1.1" id="圖層_1" xmlns="http://www.w3.org/2000/svg" xmlns:xlink="http://www.w3.org/1999/xlink" x="0px" y="0px"
	 width="67.375px" height="30.813px" viewBox="0 0 67.375 30.813" enable-background="new 0 0 67.375 30.813" xml:space="preserve">
<g>
	<ellipse fill="#FFFFFF" cx="22.395" cy="15.402" rx="13.377" ry="13.145"/>
	<g>
		<g>
			<defs>
				<path id="SVGID_1_" d="M43.377,21.412c-0.093-0.081-0.2-0.151-0.319-0.209c-0.12-0.06-0.242-0.113-0.366-0.163
					c-0.125-0.05-0.247-0.099-0.366-0.147c-0.119-0.047-0.226-0.102-0.318-0.16c-0.094-0.058-0.169-0.125-0.226-0.201
					c-0.056-0.076-0.084-0.166-0.084-0.271c0-0.072,0.015-0.14,0.044-0.204c0.029-0.064,0.074-0.12,0.132-0.167
					c0.059-0.047,0.133-0.083,0.223-0.112c0.09-0.029,0.195-0.042,0.318-0.042c0.131,0,0.249,0.013,0.354,0.042
					c0.104,0.028,0.196,0.06,0.273,0.093c0.076,0.034,0.141,0.064,0.194,0.091c0.053,0.027,0.092,0.041,0.117,0.041
					c0.016,0,0.03-0.003,0.043-0.013c0.011-0.009,0.021-0.022,0.028-0.041c0.007-0.018,0.012-0.041,0.015-0.069
					c0.003-0.026,0.005-0.058,0.005-0.092c0-0.037-0.001-0.067-0.003-0.091c-0.002-0.023-0.005-0.043-0.01-0.06
					c-0.005-0.016-0.01-0.03-0.017-0.041c-0.007-0.01-0.021-0.025-0.043-0.044c-0.021-0.018-0.066-0.042-0.134-0.073
					c-0.067-0.03-0.145-0.057-0.231-0.081c-0.087-0.025-0.18-0.044-0.277-0.059c-0.099-0.015-0.195-0.022-0.293-0.022
					c-0.189,0-0.366,0.022-0.529,0.065c-0.164,0.044-0.305,0.107-0.424,0.191c-0.117,0.084-0.211,0.187-0.277,0.31
					c-0.066,0.124-0.1,0.264-0.1,0.421c0,0.153,0.028,0.285,0.086,0.395c0.057,0.11,0.132,0.206,0.225,0.287
					c0.093,0.081,0.197,0.152,0.315,0.212c0.118,0.06,0.237,0.115,0.361,0.165c0.125,0.049,0.246,0.098,0.364,0.146
					c0.119,0.047,0.224,0.1,0.316,0.157c0.093,0.058,0.167,0.125,0.224,0.2c0.056,0.075,0.085,0.167,0.085,0.273
					c0,0.099-0.021,0.187-0.061,0.266c-0.041,0.077-0.1,0.143-0.175,0.196c-0.075,0.053-0.166,0.095-0.271,0.124
					c-0.105,0.03-0.221,0.044-0.347,0.044c-0.167,0-0.314-0.017-0.442-0.051c-0.127-0.034-0.236-0.071-0.327-0.109
					c-0.089-0.039-0.164-0.075-0.221-0.108c-0.058-0.033-0.103-0.05-0.134-0.05c-0.018,0-0.033,0.003-0.047,0.01
					c-0.014,0.007-0.025,0.019-0.035,0.036c-0.009,0.018-0.016,0.041-0.02,0.069c-0.004,0.028-0.006,0.063-0.006,0.105
					c0,0.061,0.006,0.109,0.018,0.145c0.013,0.036,0.033,0.065,0.058,0.089s0.072,0.052,0.138,0.084
					c0.067,0.033,0.149,0.065,0.248,0.096c0.098,0.031,0.209,0.058,0.335,0.079c0.125,0.021,0.261,0.032,0.409,0.032
					c0.209,0,0.405-0.025,0.586-0.073c0.181-0.048,0.339-0.122,0.474-0.217c0.134-0.096,0.239-0.213,0.314-0.351
					c0.075-0.138,0.113-0.296,0.113-0.471c0-0.15-0.029-0.279-0.087-0.389C43.547,21.588,43.472,21.492,43.377,21.412z"/>
			</defs>
			<use xlink:href="#SVGID_1_"  overflow="visible" fill="#EF834A"/>
			<clipPath id="SVGID_2_">
				<use xlink:href="#SVGID_1_"  overflow="visible"/>
			</clipPath>
			<path clip-path="url(#SVGID_2_)" fill="#EF834A" d="M43.377,21.412c-0.093-0.081-0.2-0.151-0.319-0.209
				c-0.12-0.06-0.242-0.113-0.366-0.163c-0.125-0.05-0.247-0.099-0.366-0.147c-0.119-0.047-0.226-0.102-0.318-0.16
				c-0.094-0.058-0.169-0.125-0.226-0.201c-0.056-0.076-0.084-0.166-0.084-0.271c0-0.072,0.015-0.14,0.044-0.204
				c0.029-0.064,0.074-0.12,0.132-0.167c0.059-0.047,0.133-0.083,0.223-0.112c0.09-0.029,0.195-0.042,0.318-0.042
				c0.131,0,0.249,0.013,0.354,0.042c0.104,0.028,0.196,0.06,0.273,0.093c0.076,0.034,0.141,0.064,0.194,0.091
				c0.053,0.027,0.092,0.041,0.117,0.041c0.016,0,0.03-0.003,0.043-0.013c0.011-0.009,0.021-0.022,0.028-0.041
				c0.007-0.018,0.012-0.041,0.015-0.069c0.003-0.026,0.005-0.058,0.005-0.092c0-0.037-0.001-0.067-0.003-0.091
				c-0.002-0.023-0.005-0.043-0.01-0.06c-0.005-0.016-0.01-0.03-0.017-0.041c-0.007-0.01-0.021-0.025-0.043-0.044
				c-0.021-0.018-0.066-0.042-0.134-0.073c-0.067-0.03-0.145-0.057-0.231-0.081c-0.087-0.025-0.18-0.044-0.277-0.059
				c-0.099-0.015-0.195-0.022-0.293-0.022c-0.189,0-0.366,0.022-0.529,0.065c-0.164,0.044-0.305,0.107-0.424,0.191
				c-0.117,0.084-0.211,0.187-0.277,0.31c-0.066,0.124-0.1,0.264-0.1,0.421c0,0.153,0.028,0.285,0.086,0.395
				c0.057,0.11,0.132,0.206,0.225,0.287c0.093,0.081,0.197,0.152,0.315,0.212c0.118,0.06,0.237,0.115,0.361,0.165
				c0.125,0.049,0.246,0.098,0.364,0.146c0.119,0.047,0.224,0.1,0.316,0.157c0.093,0.058,0.167,0.125,0.224,0.2
				c0.056,0.075,0.085,0.167,0.085,0.273c0,0.099-0.021,0.187-0.061,0.266c-0.041,0.077-0.1,0.143-0.175,0.196
				c-0.075,0.053-0.166,0.095-0.271,0.124c-0.105,0.03-0.221,0.044-0.347,0.044c-0.167,0-0.314-0.017-0.442-0.051
				c-0.127-0.034-0.236-0.071-0.327-0.109c-0.089-0.039-0.164-0.075-0.221-0.108c-0.058-0.033-0.103-0.05-0.134-0.05
				c-0.018,0-0.033,0.003-0.047,0.01c-0.014,0.007-0.025,0.019-0.035,0.036c-0.009,0.018-0.016,0.041-0.02,0.069
				c-0.004,0.028-0.006,0.063-0.006,0.105c0,0.061,0.006,0.109,0.018,0.145c0.013,0.036,0.033,0.065,0.058,0.089
				s0.072,0.052,0.138,0.084c0.067,0.033,0.149,0.065,0.248,0.096c0.098,0.031,0.209,0.058,0.335,0.079
				c0.125,0.021,0.261,0.032,0.409,0.032c0.209,0,0.405-0.025,0.586-0.073c0.181-0.048,0.339-0.122,0.474-0.217
				c0.134-0.096,0.239-0.213,0.314-0.351c0.075-0.138,0.113-0.296,0.113-0.471c0-0.15-0.029-0.279-0.087-0.389
				C43.547,21.588,43.472,21.492,43.377,21.412z"/>
			<path clip-path="url(#SVGID_2_)" fill="#EF834A" d="M43.377,21.412c-0.093-0.081-0.2-0.151-0.319-0.209
				c-0.12-0.06-0.242-0.113-0.366-0.163c-0.125-0.05-0.247-0.099-0.366-0.147c-0.119-0.047-0.226-0.102-0.318-0.16
				c-0.094-0.058-0.169-0.125-0.226-0.201c-0.056-0.076-0.084-0.166-0.084-0.271c0-0.072,0.015-0.14,0.044-0.204
				c0.029-0.064,0.074-0.12,0.132-0.167c0.059-0.047,0.133-0.083,0.223-0.112c0.09-0.029,0.195-0.042,0.318-0.042
				c0.131,0,0.249,0.013,0.354,0.042c0.104,0.028,0.196,0.06,0.273,0.093c0.076,0.034,0.141,0.064,0.194,0.091
				c0.053,0.027,0.092,0.041,0.117,0.041c0.016,0,0.03-0.003,0.043-0.013c0.011-0.009,0.021-0.022,0.028-0.041
				c0.007-0.018,0.012-0.041,0.015-0.069c0.003-0.026,0.005-0.058,0.005-0.092c0-0.037-0.001-0.067-0.003-0.091
				c-0.002-0.023-0.005-0.043-0.01-0.06c-0.005-0.016-0.01-0.03-0.017-0.041c-0.007-0.01-0.021-0.025-0.043-0.044
				c-0.021-0.018-0.066-0.042-0.134-0.073c-0.067-0.03-0.145-0.057-0.231-0.081c-0.087-0.025-0.18-0.044-0.277-0.059
				c-0.099-0.015-0.195-0.022-0.293-0.022c-0.189,0-0.366,0.022-0.529,0.065c-0.164,0.044-0.305,0.107-0.424,0.191
				c-0.117,0.084-0.211,0.187-0.277,0.31c-0.066,0.124-0.1,0.264-0.1,0.421c0,0.153,0.028,0.285,0.086,0.395
				c0.057,0.11,0.132,0.206,0.225,0.287c0.093,0.081,0.197,0.152,0.315,0.212c0.118,0.06,0.237,0.115,0.361,0.165
				c0.125,0.049,0.246,0.098,0.364,0.146c0.119,0.047,0.224,0.1,0.316,0.157c0.093,0.058,0.167,0.125,0.224,0.2
				c0.056,0.075,0.085,0.167,0.085,0.273c0,0.099-0.021,0.187-0.061,0.266c-0.041,0.077-0.1,0.143-0.175,0.196
				c-0.075,0.053-0.166,0.095-0.271,0.124c-0.105,0.03-0.221,0.044-0.347,0.044c-0.167,0-0.314-0.017-0.442-0.051
				c-0.127-0.034-0.236-0.071-0.327-0.109c-0.089-0.039-0.164-0.075-0.221-0.108c-0.058-0.033-0.103-0.05-0.134-0.05
				c-0.018,0-0.033,0.003-0.047,0.01c-0.014,0.007-0.025,0.019-0.035,0.036c-0.009,0.018-0.016,0.041-0.02,0.069
				c-0.004,0.028-0.006,0.063-0.006,0.105c0,0.061,0.006,0.109,0.018,0.145c0.013,0.036,0.033,0.065,0.058,0.089
				s0.072,0.052,0.138,0.084c0.067,0.033,0.149,0.065,0.248,0.096c0.098,0.031,0.209,0.058,0.335,0.079
				c0.125,0.021,0.261,0.032,0.409,0.032c0.209,0,0.405-0.025,0.586-0.073c0.181-0.048,0.339-0.122,0.474-0.217
				c0.134-0.096,0.239-0.213,0.314-0.351c0.075-0.138,0.113-0.296,0.113-0.471c0-0.15-0.029-0.279-0.087-0.389
				C43.547,21.588,43.472,21.492,43.377,21.412z"/>
			<path opacity="0.35" clip-path="url(#SVGID_2_)" fill="#EF834A" d="M43.377,21.412c-0.093-0.081-0.2-0.151-0.319-0.209
				c-0.12-0.06-0.242-0.113-0.366-0.163c-0.125-0.05-0.247-0.099-0.366-0.147c-0.119-0.047-0.226-0.102-0.318-0.16
				c-0.094-0.058-0.169-0.125-0.226-0.201c-0.056-0.076-0.084-0.166-0.084-0.271c0-0.072,0.015-0.14,0.044-0.204
				c0.029-0.064,0.074-0.12,0.132-0.167c0.059-0.047,0.133-0.083,0.223-0.112c0.09-0.029,0.195-0.042,0.318-0.042
				c0.131,0,0.249,0.013,0.354,0.042c0.104,0.028,0.196,0.06,0.273,0.093c0.076,0.034,0.141,0.064,0.194,0.091
				c0.053,0.027,0.092,0.041,0.117,0.041c0.016,0,0.03-0.003,0.043-0.013c0.011-0.009,0.021-0.022,0.028-0.041
				c0.007-0.018,0.012-0.041,0.015-0.069c0.003-0.026,0.005-0.058,0.005-0.092c0-0.037-0.001-0.067-0.003-0.091
				c-0.002-0.023-0.005-0.043-0.01-0.06c-0.005-0.016-0.01-0.03-0.017-0.041c-0.007-0.01-0.021-0.025-0.043-0.044
				c-0.021-0.018-0.066-0.042-0.134-0.073c-0.067-0.03-0.145-0.057-0.231-0.081c-0.087-0.025-0.18-0.044-0.277-0.059
				c-0.099-0.015-0.195-0.022-0.293-0.022c-0.189,0-0.366,0.022-0.529,0.065c-0.164,0.044-0.305,0.107-0.424,0.191
				c-0.117,0.084-0.211,0.187-0.277,0.31c-0.066,0.124-0.1,0.264-0.1,0.421c0,0.153,0.028,0.285,0.086,0.395
				c0.057,0.11,0.132,0.206,0.225,0.287c0.093,0.081,0.197,0.152,0.315,0.212c0.118,0.06,0.237,0.115,0.361,0.165
				c0.125,0.049,0.246,0.098,0.364,0.146c0.119,0.047,0.224,0.1,0.316,0.157c0.093,0.058,0.167,0.125,0.224,0.2
				c0.056,0.075,0.085,0.167,0.085,0.273c0,0.099-0.021,0.187-0.061,0.266c-0.041,0.077-0.1,0.143-0.175,0.196
				c-0.075,0.053-0.166,0.095-0.271,0.124c-0.105,0.03-0.221,0.044-0.347,0.044c-0.167,0-0.314-0.017-0.442-0.051
				c-0.127-0.034-0.236-0.071-0.327-0.109c-0.089-0.039-0.164-0.075-0.221-0.108c-0.058-0.033-0.103-0.05-0.134-0.05
				c-0.018,0-0.033,0.003-0.047,0.01c-0.014,0.007-0.025,0.019-0.035,0.036c-0.009,0.018-0.016,0.041-0.02,0.069
				c-0.004,0.028-0.006,0.063-0.006,0.105c0,0.061,0.006,0.109,0.018,0.145c0.013,0.036,0.033,0.065,0.058,0.089
				s0.072,0.052,0.138,0.084c0.067,0.033,0.149,0.065,0.248,0.096c0.098,0.031,0.209,0.058,0.335,0.079
				c0.125,0.021,0.261,0.032,0.409,0.032c0.209,0,0.405-0.025,0.586-0.073c0.181-0.048,0.339-0.122,0.474-0.217
				c0.134-0.096,0.239-0.213,0.314-0.351c0.075-0.138,0.113-0.296,0.113-0.471c0-0.15-0.029-0.279-0.087-0.389
				C43.547,21.588,43.472,21.492,43.377,21.412z"/>
		</g>
		<g>
			<defs>
				<path id="SVGID_3_" d="M49.138,19.383c-0.02-0.008-0.045-0.014-0.079-0.019c-0.032-0.004-0.072-0.007-0.12-0.007
					c-0.051,0-0.093,0.002-0.124,0.007c-0.032,0.005-0.058,0.011-0.078,0.019c-0.019,0.006-0.033,0.016-0.042,0.027
					c-0.008,0.012-0.011,0.025-0.011,0.041v1.508h-1.747v-1.508c0-0.016-0.003-0.029-0.012-0.041
					c-0.008-0.011-0.021-0.021-0.041-0.027c-0.02-0.008-0.046-0.014-0.079-0.019c-0.032-0.004-0.073-0.007-0.123-0.007
					c-0.048,0-0.088,0.002-0.122,0.007c-0.033,0.005-0.06,0.011-0.08,0.019c-0.021,0.006-0.034,0.016-0.042,0.027
					c-0.008,0.012-0.012,0.025-0.012,0.041v3.616c0,0.016,0.003,0.029,0.012,0.041c0.007,0.011,0.021,0.021,0.042,0.027
					c0.02,0.007,0.046,0.012,0.08,0.019c0.034,0.003,0.074,0.007,0.122,0.007c0.049,0,0.091-0.003,0.123-0.007
					c0.033-0.006,0.06-0.011,0.079-0.019c0.02-0.006,0.033-0.016,0.041-0.027c0.008-0.012,0.012-0.025,0.012-0.041v-1.671h1.747
					v1.671c0,0.016,0.003,0.029,0.011,0.041c0.009,0.011,0.022,0.021,0.042,0.027c0.02,0.007,0.046,0.012,0.078,0.019
					c0.031,0.003,0.073,0.007,0.124,0.007c0.047,0,0.087-0.003,0.12-0.007c0.034-0.006,0.059-0.011,0.079-0.019
					c0.02-0.006,0.034-0.016,0.042-0.027c0.007-0.012,0.011-0.025,0.011-0.041v-3.616c0-0.016-0.004-0.029-0.011-0.041
					C49.171,19.399,49.158,19.39,49.138,19.383z"/>
			</defs>
			<use xlink:href="#SVGID_3_"  overflow="visible" fill="#EF834A"/>
			<clipPath id="SVGID_4_">
				<use xlink:href="#SVGID_3_"  overflow="visible"/>
			</clipPath>
			<path clip-path="url(#SVGID_4_)" fill="#EF834A" d="M49.138,19.383c-0.02-0.008-0.045-0.014-0.079-0.019
				c-0.032-0.004-0.072-0.007-0.12-0.007c-0.051,0-0.093,0.002-0.124,0.007c-0.032,0.005-0.058,0.011-0.078,0.019
				c-0.019,0.006-0.033,0.016-0.042,0.027c-0.008,0.012-0.011,0.025-0.011,0.041v1.508h-1.747v-1.508
				c0-0.016-0.003-0.029-0.012-0.041c-0.008-0.011-0.021-0.021-0.041-0.027c-0.02-0.008-0.046-0.014-0.079-0.019
				c-0.032-0.004-0.073-0.007-0.123-0.007c-0.048,0-0.088,0.002-0.122,0.007c-0.033,0.005-0.06,0.011-0.08,0.019
				c-0.021,0.006-0.034,0.016-0.042,0.027c-0.008,0.012-0.012,0.025-0.012,0.041v3.616c0,0.016,0.003,0.029,0.012,0.041
				c0.007,0.011,0.021,0.021,0.042,0.027c0.02,0.007,0.046,0.012,0.08,0.019c0.034,0.003,0.074,0.007,0.122,0.007
				c0.049,0,0.091-0.003,0.123-0.007c0.033-0.006,0.06-0.011,0.079-0.019c0.02-0.006,0.033-0.016,0.041-0.027
				c0.008-0.012,0.012-0.025,0.012-0.041v-1.671h1.747v1.671c0,0.016,0.003,0.029,0.011,0.041c0.009,0.011,0.022,0.021,0.042,0.027
				c0.02,0.007,0.046,0.012,0.078,0.019c0.031,0.003,0.073,0.007,0.124,0.007c0.047,0,0.087-0.003,0.12-0.007
				c0.034-0.006,0.059-0.011,0.079-0.019c0.02-0.006,0.034-0.016,0.042-0.027c0.007-0.012,0.011-0.025,0.011-0.041v-3.616
				c0-0.016-0.004-0.029-0.011-0.041C49.171,19.399,49.158,19.39,49.138,19.383z"/>
			<path opacity="0.3" clip-path="url(#SVGID_4_)" fill="#EF834A" d="M49.138,19.383c-0.02-0.008-0.045-0.014-0.079-0.019
				c-0.032-0.004-0.072-0.007-0.12-0.007c-0.051,0-0.093,0.002-0.124,0.007c-0.032,0.005-0.058,0.011-0.078,0.019
				c-0.019,0.006-0.033,0.016-0.042,0.027c-0.008,0.012-0.011,0.025-0.011,0.041v1.508h-1.747v-1.508
				c0-0.016-0.003-0.029-0.012-0.041c-0.008-0.011-0.021-0.021-0.041-0.027c-0.02-0.008-0.046-0.014-0.079-0.019
				c-0.032-0.004-0.073-0.007-0.123-0.007c-0.048,0-0.088,0.002-0.122,0.007c-0.033,0.005-0.06,0.011-0.08,0.019
				c-0.021,0.006-0.034,0.016-0.042,0.027c-0.008,0.012-0.012,0.025-0.012,0.041v3.616c0,0.016,0.003,0.029,0.012,0.041
				c0.007,0.011,0.021,0.021,0.042,0.027c0.02,0.007,0.046,0.012,0.08,0.019c0.034,0.003,0.074,0.007,0.122,0.007
				c0.049,0,0.091-0.003,0.123-0.007c0.033-0.006,0.06-0.011,0.079-0.019c0.02-0.006,0.033-0.016,0.041-0.027
				c0.008-0.012,0.012-0.025,0.012-0.041v-1.671h1.747v1.671c0,0.016,0.003,0.029,0.011,0.041c0.009,0.011,0.022,0.021,0.042,0.027
				c0.02,0.007,0.046,0.012,0.078,0.019c0.031,0.003,0.073,0.007,0.124,0.007c0.047,0,0.087-0.003,0.12-0.007
				c0.034-0.006,0.059-0.011,0.079-0.019c0.02-0.006,0.034-0.016,0.042-0.027c0.007-0.012,0.011-0.025,0.011-0.041v-3.616
				c0-0.016-0.004-0.029-0.011-0.041C49.171,19.399,49.158,19.39,49.138,19.383z"/>
			<path opacity="0.35" clip-path="url(#SVGID_4_)" fill="#EF834A" d="M49.138,19.383c-0.02-0.008-0.045-0.014-0.079-0.019
				c-0.032-0.004-0.072-0.007-0.12-0.007c-0.051,0-0.093,0.002-0.124,0.007c-0.032,0.005-0.058,0.011-0.078,0.019
				c-0.019,0.006-0.033,0.016-0.042,0.027c-0.008,0.012-0.011,0.025-0.011,0.041v1.508h-1.747v-1.508
				c0-0.016-0.003-0.029-0.012-0.041c-0.008-0.011-0.021-0.021-0.041-0.027c-0.02-0.008-0.046-0.014-0.079-0.019
				c-0.032-0.004-0.073-0.007-0.123-0.007c-0.048,0-0.088,0.002-0.122,0.007c-0.033,0.005-0.06,0.011-0.08,0.019
				c-0.021,0.006-0.034,0.016-0.042,0.027c-0.008,0.012-0.012,0.025-0.012,0.041v3.616c0,0.016,0.003,0.029,0.012,0.041
				c0.007,0.011,0.021,0.021,0.042,0.027c0.02,0.007,0.046,0.012,0.08,0.019c0.034,0.003,0.074,0.007,0.122,0.007
				c0.049,0,0.091-0.003,0.123-0.007c0.033-0.006,0.06-0.011,0.079-0.019c0.02-0.006,0.033-0.016,0.041-0.027
				c0.008-0.012,0.012-0.025,0.012-0.041v-1.671h1.747v1.671c0,0.016,0.003,0.029,0.011,0.041c0.009,0.011,0.022,0.021,0.042,0.027
				c0.02,0.007,0.046,0.012,0.078,0.019c0.031,0.003,0.073,0.007,0.124,0.007c0.047,0,0.087-0.003,0.12-0.007
				c0.034-0.006,0.059-0.011,0.079-0.019c0.02-0.006,0.034-0.016,0.042-0.027c0.007-0.012,0.011-0.025,0.011-0.041v-3.616
				c0-0.016-0.004-0.029-0.011-0.041C49.171,19.399,49.158,19.39,49.138,19.383z"/>
		</g>
		<g>
			<defs>
				<path id="SVGID_5_" d="M53.768,19.466c-0.008-0.021-0.019-0.04-0.032-0.054c-0.014-0.015-0.035-0.026-0.06-0.034
					c-0.026-0.008-0.06-0.013-0.101-0.016c-0.042-0.002-0.094-0.004-0.157-0.004c-0.06,0-0.108,0.001-0.147,0.004
					c-0.038,0.003-0.07,0.008-0.095,0.016c-0.025,0.008-0.043,0.018-0.056,0.032c-0.013,0.013-0.023,0.031-0.032,0.052l-1.285,3.5
					c-0.016,0.043-0.025,0.078-0.025,0.104c-0.001,0.026,0.005,0.046,0.02,0.059c0.016,0.014,0.041,0.022,0.077,0.029
					c0.036,0.003,0.084,0.007,0.141,0.007c0.056,0,0.101-0.002,0.135-0.006c0.034-0.003,0.061-0.01,0.081-0.019
					c0.018-0.009,0.033-0.019,0.042-0.032c0.01-0.013,0.018-0.028,0.024-0.045l0.313-0.905h1.594l0.33,0.917
					c0.007,0.017,0.017,0.032,0.025,0.043c0.009,0.011,0.023,0.021,0.042,0.028c0.018,0.006,0.045,0.012,0.083,0.014
					c0.036,0.003,0.085,0.005,0.146,0.005s0.11-0.002,0.147-0.006c0.037-0.003,0.063-0.012,0.078-0.026
					c0.015-0.015,0.022-0.034,0.021-0.06c0-0.026-0.009-0.06-0.025-0.103L53.768,19.466z M52.739,21.754l0.661-1.878h0.003
					l0.67,1.878H52.739z"/>
			</defs>
			<use xlink:href="#SVGID_5_"  overflow="visible" fill="#EF834A"/>
			<clipPath id="SVGID_6_">
				<use xlink:href="#SVGID_5_"  overflow="visible"/>
			</clipPath>
			<path clip-path="url(#SVGID_6_)" fill="#EF834A" d="M53.768,19.466c-0.008-0.021-0.019-0.04-0.032-0.054
				c-0.014-0.015-0.035-0.026-0.06-0.034c-0.026-0.008-0.06-0.013-0.101-0.016c-0.042-0.002-0.094-0.004-0.157-0.004
				c-0.06,0-0.108,0.001-0.147,0.004c-0.038,0.003-0.07,0.008-0.095,0.016c-0.025,0.008-0.043,0.018-0.056,0.032
				c-0.013,0.013-0.023,0.031-0.032,0.052l-1.285,3.5c-0.016,0.043-0.025,0.078-0.025,0.104c-0.001,0.026,0.005,0.046,0.02,0.059
				c0.016,0.014,0.041,0.022,0.077,0.029c0.036,0.003,0.084,0.007,0.141,0.007c0.056,0,0.101-0.002,0.135-0.006
				c0.034-0.003,0.061-0.01,0.081-0.019c0.018-0.009,0.033-0.019,0.042-0.032c0.01-0.013,0.018-0.028,0.024-0.045l0.313-0.905h1.594
				l0.33,0.917c0.007,0.017,0.017,0.032,0.025,0.043c0.009,0.011,0.023,0.021,0.042,0.028c0.018,0.006,0.045,0.012,0.083,0.014
				c0.036,0.003,0.085,0.005,0.146,0.005s0.11-0.002,0.147-0.006c0.037-0.003,0.063-0.012,0.078-0.026
				c0.015-0.015,0.022-0.034,0.021-0.06c0-0.026-0.009-0.06-0.025-0.103L53.768,19.466z M52.739,21.754l0.661-1.878h0.003
				l0.67,1.878H52.739z"/>
			<path clip-path="url(#SVGID_6_)" fill="#EF834A" d="M53.768,19.466c-0.008-0.021-0.019-0.04-0.032-0.054
				c-0.014-0.015-0.035-0.026-0.06-0.034c-0.026-0.008-0.06-0.013-0.101-0.016c-0.042-0.002-0.094-0.004-0.157-0.004
				c-0.06,0-0.108,0.001-0.147,0.004c-0.038,0.003-0.07,0.008-0.095,0.016c-0.025,0.008-0.043,0.018-0.056,0.032
				c-0.013,0.013-0.023,0.031-0.032,0.052l-1.285,3.5c-0.016,0.043-0.025,0.078-0.025,0.104c-0.001,0.026,0.005,0.046,0.02,0.059
				c0.016,0.014,0.041,0.022,0.077,0.029c0.036,0.003,0.084,0.007,0.141,0.007c0.056,0,0.101-0.002,0.135-0.006
				c0.034-0.003,0.061-0.01,0.081-0.019c0.018-0.009,0.033-0.019,0.042-0.032c0.01-0.013,0.018-0.028,0.024-0.045l0.313-0.905h1.594
				l0.33,0.917c0.007,0.017,0.017,0.032,0.025,0.043c0.009,0.011,0.023,0.021,0.042,0.028c0.018,0.006,0.045,0.012,0.083,0.014
				c0.036,0.003,0.085,0.005,0.146,0.005s0.11-0.002,0.147-0.006c0.037-0.003,0.063-0.012,0.078-0.026
				c0.015-0.015,0.022-0.034,0.021-0.06c0-0.026-0.009-0.06-0.025-0.103L53.768,19.466z M52.739,21.754l0.661-1.878h0.003
				l0.67,1.878H52.739z"/>
			<path opacity="0.35" clip-path="url(#SVGID_6_)" fill="#EF834A" d="M53.768,19.466c-0.008-0.021-0.019-0.04-0.032-0.054
				c-0.014-0.015-0.035-0.026-0.06-0.034c-0.026-0.008-0.06-0.013-0.101-0.016c-0.042-0.002-0.094-0.004-0.157-0.004
				c-0.06,0-0.108,0.001-0.147,0.004c-0.038,0.003-0.07,0.008-0.095,0.016c-0.025,0.008-0.043,0.018-0.056,0.032
				c-0.013,0.013-0.023,0.031-0.032,0.052l-1.285,3.5c-0.016,0.043-0.025,0.078-0.025,0.104c-0.001,0.026,0.005,0.046,0.02,0.059
				c0.016,0.014,0.041,0.022,0.077,0.029c0.036,0.003,0.084,0.007,0.141,0.007c0.056,0,0.101-0.002,0.135-0.006
				c0.034-0.003,0.061-0.01,0.081-0.019c0.018-0.009,0.033-0.019,0.042-0.032c0.01-0.013,0.018-0.028,0.024-0.045l0.313-0.905h1.594
				l0.33,0.917c0.007,0.017,0.017,0.032,0.025,0.043c0.009,0.011,0.023,0.021,0.042,0.028c0.018,0.006,0.045,0.012,0.083,0.014
				c0.036,0.003,0.085,0.005,0.146,0.005s0.11-0.002,0.147-0.006c0.037-0.003,0.063-0.012,0.078-0.026
				c0.015-0.015,0.022-0.034,0.021-0.06c0-0.026-0.009-0.06-0.025-0.103L53.768,19.466z M52.739,21.754l0.661-1.878h0.003
				l0.67,1.878H52.739z"/>
		</g>
		<g>
			<defs>
				<path id="SVGID_7_" d="M60.198,19.422c-0.008-0.012-0.021-0.021-0.041-0.031c-0.018-0.008-0.044-0.015-0.077-0.019
					c-0.033-0.004-0.073-0.006-0.119-0.006c-0.052,0-0.094,0.002-0.127,0.006c-0.032,0.004-0.058,0.011-0.078,0.019
					c-0.02,0.009-0.033,0.019-0.042,0.031c-0.008,0.012-0.012,0.024-0.012,0.038v2.043c0,0.154,0,0.313,0,0.479
					c0.001,0.167,0.004,0.326,0.007,0.479h-0.002c-0.046-0.091-0.092-0.181-0.139-0.271c-0.046-0.09-0.094-0.182-0.142-0.276
					c-0.048-0.093-0.098-0.188-0.149-0.284c-0.051-0.096-0.105-0.194-0.16-0.296l-0.899-1.654c-0.032-0.06-0.063-0.11-0.093-0.149
					c-0.03-0.04-0.06-0.071-0.091-0.094c-0.032-0.022-0.068-0.038-0.107-0.047c-0.041-0.011-0.088-0.015-0.148-0.015h-0.25
					c-0.053,0-0.103,0.016-0.147,0.049c-0.045,0.034-0.068,0.088-0.068,0.166v3.477c0,0.014,0.005,0.027,0.013,0.04
					s0.022,0.022,0.041,0.029c0.019,0.007,0.043,0.012,0.076,0.019c0.033,0.003,0.074,0.007,0.124,0.007
					c0.049,0,0.091-0.003,0.123-0.007c0.033-0.006,0.059-0.011,0.078-0.019c0.021-0.006,0.034-0.016,0.043-0.029
					c0.007-0.013,0.012-0.026,0.012-0.04v-2.274c0-0.144,0-0.288-0.002-0.434c-0.003-0.146-0.005-0.289-0.01-0.428h0.006
					c0.053,0.115,0.111,0.232,0.173,0.354c0.063,0.122,0.124,0.237,0.186,0.348l1.169,2.143c0.04,0.076,0.078,0.138,0.113,0.186
					c0.036,0.049,0.072,0.088,0.107,0.115c0.036,0.028,0.073,0.048,0.114,0.059c0.039,0.011,0.086,0.017,0.139,0.017h0.168
					c0.026,0,0.053-0.005,0.08-0.012c0.027-0.008,0.051-0.021,0.072-0.038c0.022-0.018,0.039-0.04,0.052-0.067
					c0.013-0.026,0.02-0.06,0.02-0.099V19.46C60.21,19.446,60.207,19.434,60.198,19.422z"/>
			</defs>
			<use xlink:href="#SVGID_7_"  overflow="visible" fill="#EF834A"/>
			<clipPath id="SVGID_8_">
				<use xlink:href="#SVGID_7_"  overflow="visible"/>
			</clipPath>
			<path clip-path="url(#SVGID_8_)" fill="#EF834A" d="M60.198,19.422c-0.008-0.012-0.021-0.021-0.041-0.031
				c-0.018-0.008-0.044-0.015-0.077-0.019c-0.033-0.004-0.073-0.006-0.119-0.006c-0.052,0-0.094,0.002-0.127,0.006
				c-0.032,0.004-0.058,0.011-0.078,0.019c-0.02,0.009-0.033,0.019-0.042,0.031c-0.008,0.012-0.012,0.024-0.012,0.038v2.043
				c0,0.154,0,0.313,0,0.479c0.001,0.167,0.004,0.326,0.007,0.479h-0.002c-0.046-0.091-0.092-0.181-0.139-0.271
				c-0.046-0.09-0.094-0.182-0.142-0.276c-0.048-0.093-0.098-0.188-0.149-0.284c-0.051-0.096-0.105-0.194-0.16-0.296l-0.899-1.654
				c-0.032-0.06-0.063-0.11-0.093-0.149c-0.03-0.04-0.06-0.071-0.091-0.094c-0.032-0.022-0.068-0.038-0.107-0.047
				c-0.041-0.011-0.088-0.015-0.148-0.015h-0.25c-0.053,0-0.103,0.016-0.147,0.049c-0.045,0.034-0.068,0.088-0.068,0.166v3.477
				c0,0.014,0.005,0.027,0.013,0.04s0.022,0.022,0.041,0.029c0.019,0.007,0.043,0.012,0.076,0.019
				c0.033,0.003,0.074,0.007,0.124,0.007c0.049,0,0.091-0.003,0.123-0.007c0.033-0.006,0.059-0.011,0.078-0.019
				c0.021-0.006,0.034-0.016,0.043-0.029c0.007-0.013,0.012-0.026,0.012-0.04v-2.274c0-0.144,0-0.288-0.002-0.434
				c-0.003-0.146-0.005-0.289-0.01-0.428h0.006c0.053,0.115,0.111,0.232,0.173,0.354c0.063,0.122,0.124,0.237,0.186,0.348
				l1.169,2.143c0.04,0.076,0.078,0.138,0.113,0.186c0.036,0.049,0.072,0.088,0.107,0.115c0.036,0.028,0.073,0.048,0.114,0.059
				c0.039,0.011,0.086,0.017,0.139,0.017h0.168c0.026,0,0.053-0.005,0.08-0.012c0.027-0.008,0.051-0.021,0.072-0.038
				c0.022-0.018,0.039-0.04,0.052-0.067c0.013-0.026,0.02-0.06,0.02-0.099V19.46C60.21,19.446,60.207,19.434,60.198,19.422z"/>
			<path clip-path="url(#SVGID_8_)" fill="#EF834A" d="M60.198,19.422c-0.008-0.012-0.021-0.021-0.041-0.031
				c-0.018-0.008-0.044-0.015-0.077-0.019c-0.033-0.004-0.073-0.006-0.119-0.006c-0.052,0-0.094,0.002-0.127,0.006
				c-0.032,0.004-0.058,0.011-0.078,0.019c-0.02,0.009-0.033,0.019-0.042,0.031c-0.008,0.012-0.012,0.024-0.012,0.038v2.043
				c0,0.154,0,0.313,0,0.479c0.001,0.167,0.004,0.326,0.007,0.479h-0.002c-0.046-0.091-0.092-0.181-0.139-0.271
				c-0.046-0.09-0.094-0.182-0.142-0.276c-0.048-0.093-0.098-0.188-0.149-0.284c-0.051-0.096-0.105-0.194-0.16-0.296l-0.899-1.654
				c-0.032-0.06-0.063-0.11-0.093-0.149c-0.03-0.04-0.06-0.071-0.091-0.094c-0.032-0.022-0.068-0.038-0.107-0.047
				c-0.041-0.011-0.088-0.015-0.148-0.015h-0.25c-0.053,0-0.103,0.016-0.147,0.049c-0.045,0.034-0.068,0.088-0.068,0.166v3.477
				c0,0.014,0.005,0.027,0.013,0.04s0.022,0.022,0.041,0.029c0.019,0.007,0.043,0.012,0.076,0.019
				c0.033,0.003,0.074,0.007,0.124,0.007c0.049,0,0.091-0.003,0.123-0.007c0.033-0.006,0.059-0.011,0.078-0.019
				c0.021-0.006,0.034-0.016,0.043-0.029c0.007-0.013,0.012-0.026,0.012-0.04v-2.274c0-0.144,0-0.288-0.002-0.434
				c-0.003-0.146-0.005-0.289-0.01-0.428h0.006c0.053,0.115,0.111,0.232,0.173,0.354c0.063,0.122,0.124,0.237,0.186,0.348
				l1.169,2.143c0.04,0.076,0.078,0.138,0.113,0.186c0.036,0.049,0.072,0.088,0.107,0.115c0.036,0.028,0.073,0.048,0.114,0.059
				c0.039,0.011,0.086,0.017,0.139,0.017h0.168c0.026,0,0.053-0.005,0.08-0.012c0.027-0.008,0.051-0.021,0.072-0.038
				c0.022-0.018,0.039-0.04,0.052-0.067c0.013-0.026,0.02-0.06,0.02-0.099V19.46C60.21,19.446,60.207,19.434,60.198,19.422z"/>
			<path clip-path="url(#SVGID_8_)" fill="#EF834A" d="M60.198,19.422c-0.008-0.012-0.021-0.021-0.041-0.031
				c-0.018-0.008-0.044-0.015-0.077-0.019c-0.033-0.004-0.073-0.006-0.119-0.006c-0.052,0-0.094,0.002-0.127,0.006
				c-0.032,0.004-0.058,0.011-0.078,0.019c-0.02,0.009-0.033,0.019-0.042,0.031c-0.008,0.012-0.012,0.024-0.012,0.038v2.043
				c0,0.154,0,0.313,0,0.479c0.001,0.167,0.004,0.326,0.007,0.479h-0.002c-0.046-0.091-0.092-0.181-0.139-0.271
				c-0.046-0.09-0.094-0.182-0.142-0.276c-0.048-0.093-0.098-0.188-0.149-0.284c-0.051-0.096-0.105-0.194-0.16-0.296l-0.899-1.654
				c-0.032-0.06-0.063-0.11-0.093-0.149c-0.03-0.04-0.06-0.071-0.091-0.094c-0.032-0.022-0.068-0.038-0.107-0.047
				c-0.041-0.011-0.088-0.015-0.148-0.015h-0.25c-0.053,0-0.103,0.016-0.147,0.049c-0.045,0.034-0.068,0.088-0.068,0.166v3.477
				c0,0.014,0.005,0.027,0.013,0.04s0.022,0.022,0.041,0.029c0.019,0.007,0.043,0.012,0.076,0.019
				c0.033,0.003,0.074,0.007,0.124,0.007c0.049,0,0.091-0.003,0.123-0.007c0.033-0.006,0.059-0.011,0.078-0.019
				c0.021-0.006,0.034-0.016,0.043-0.029c0.007-0.013,0.012-0.026,0.012-0.04v-2.274c0-0.144,0-0.288-0.002-0.434
				c-0.003-0.146-0.005-0.289-0.01-0.428h0.006c0.053,0.115,0.111,0.232,0.173,0.354c0.063,0.122,0.124,0.237,0.186,0.348
				l1.169,2.143c0.04,0.076,0.078,0.138,0.113,0.186c0.036,0.049,0.072,0.088,0.107,0.115c0.036,0.028,0.073,0.048,0.114,0.059
				c0.039,0.011,0.086,0.017,0.139,0.017h0.168c0.026,0,0.053-0.005,0.08-0.012c0.027-0.008,0.051-0.021,0.072-0.038
				c0.022-0.018,0.039-0.04,0.052-0.067c0.013-0.026,0.02-0.06,0.02-0.099V19.46C60.21,19.446,60.207,19.434,60.198,19.422z"/>
		</g>
		<g>
			<defs>
				<path id="SVGID_9_" d="M49.479,12.224c-0.217-0.25-0.489-0.439-0.816-0.57c-0.327-0.13-0.71-0.195-1.151-0.195
					c-0.457,0-0.855,0.07-1.198,0.216c-0.343,0.144-0.627,0.348-0.856,0.612c-0.228,0.266-0.399,0.588-0.514,0.967
					c-0.114,0.378-0.171,0.799-0.171,1.263c0,0.485,0.053,0.914,0.158,1.286c0.104,0.373,0.264,0.686,0.479,0.937
					c0.214,0.251,0.485,0.442,0.814,0.574c0.328,0.132,0.717,0.198,1.167,0.198c0.457,0,0.856-0.071,1.198-0.216
					c0.343-0.144,0.626-0.349,0.853-0.618c0.227-0.268,0.397-0.594,0.511-0.975s0.171-0.811,0.171-1.286s-0.053-0.897-0.16-1.266
					C49.859,12.783,49.696,12.474,49.479,12.224z M49.191,15.375c-0.063,0.285-0.165,0.535-0.31,0.752s-0.336,0.389-0.573,0.516
					c-0.237,0.127-0.53,0.191-0.878,0.191c-0.351,0-0.643-0.058-0.875-0.175c-0.232-0.117-0.418-0.281-0.557-0.491
					c-0.139-0.21-0.237-0.461-0.295-0.752c-0.059-0.291-0.087-0.609-0.087-0.954c0-0.313,0.031-0.61,0.094-0.894
					c0.063-0.283,0.168-0.531,0.314-0.743c0.146-0.211,0.337-0.381,0.571-0.508c0.234-0.127,0.523-0.191,0.868-0.191
					s0.634,0.059,0.869,0.178c0.233,0.118,0.421,0.282,0.561,0.493c0.141,0.211,0.241,0.459,0.301,0.746
					c0.06,0.287,0.09,0.595,0.09,0.929C49.283,14.789,49.252,15.09,49.191,15.375z"/>
			</defs>
			<use xlink:href="#SVGID_9_"  overflow="visible" fill="#EF834A"/>
			<clipPath id="SVGID_10_">
				<use xlink:href="#SVGID_9_"  overflow="visible"/>
			</clipPath>
			<path clip-path="url(#SVGID_10_)" fill="#EF834A" d="M49.479,12.224c-0.217-0.25-0.489-0.439-0.816-0.57
				c-0.327-0.13-0.71-0.195-1.151-0.195c-0.457,0-0.855,0.07-1.198,0.216c-0.343,0.144-0.627,0.348-0.856,0.612
				c-0.228,0.266-0.399,0.588-0.514,0.967c-0.114,0.378-0.171,0.799-0.171,1.263c0,0.485,0.053,0.914,0.158,1.286
				c0.104,0.373,0.264,0.686,0.479,0.937c0.214,0.251,0.485,0.442,0.814,0.574c0.328,0.132,0.717,0.198,1.167,0.198
				c0.457,0,0.856-0.071,1.198-0.216c0.343-0.144,0.626-0.349,0.853-0.618c0.227-0.268,0.397-0.594,0.511-0.975
				s0.171-0.811,0.171-1.286s-0.053-0.897-0.16-1.266C49.859,12.783,49.696,12.474,49.479,12.224z M49.191,15.375
				c-0.063,0.285-0.165,0.535-0.31,0.752s-0.336,0.389-0.573,0.516c-0.237,0.127-0.53,0.191-0.878,0.191
				c-0.351,0-0.643-0.058-0.875-0.175c-0.232-0.117-0.418-0.281-0.557-0.491c-0.139-0.21-0.237-0.461-0.295-0.752
				c-0.059-0.291-0.087-0.609-0.087-0.954c0-0.313,0.031-0.61,0.094-0.894c0.063-0.283,0.168-0.531,0.314-0.743
				c0.146-0.211,0.337-0.381,0.571-0.508c0.234-0.127,0.523-0.191,0.868-0.191s0.634,0.059,0.869,0.178
				c0.233,0.118,0.421,0.282,0.561,0.493c0.141,0.211,0.241,0.459,0.301,0.746c0.06,0.287,0.09,0.595,0.09,0.929
				C49.283,14.789,49.252,15.09,49.191,15.375z"/>
			<path clip-path="url(#SVGID_10_)" fill="#EF834A" d="M49.479,12.224c-0.217-0.25-0.489-0.439-0.816-0.57
				c-0.327-0.13-0.71-0.195-1.151-0.195c-0.457,0-0.855,0.07-1.198,0.216c-0.343,0.144-0.627,0.348-0.856,0.612
				c-0.228,0.266-0.399,0.588-0.514,0.967c-0.114,0.378-0.171,0.799-0.171,1.263c0,0.485,0.053,0.914,0.158,1.286
				c0.104,0.373,0.264,0.686,0.479,0.937c0.214,0.251,0.485,0.442,0.814,0.574c0.328,0.132,0.717,0.198,1.167,0.198
				c0.457,0,0.856-0.071,1.198-0.216c0.343-0.144,0.626-0.349,0.853-0.618c0.227-0.268,0.397-0.594,0.511-0.975
				s0.171-0.811,0.171-1.286s-0.053-0.897-0.16-1.266C49.859,12.783,49.696,12.474,49.479,12.224z M49.191,15.375
				c-0.063,0.285-0.165,0.535-0.31,0.752s-0.336,0.389-0.573,0.516c-0.237,0.127-0.53,0.191-0.878,0.191
				c-0.351,0-0.643-0.058-0.875-0.175c-0.232-0.117-0.418-0.281-0.557-0.491c-0.139-0.21-0.237-0.461-0.295-0.752
				c-0.059-0.291-0.087-0.609-0.087-0.954c0-0.313,0.031-0.61,0.094-0.894c0.063-0.283,0.168-0.531,0.314-0.743
				c0.146-0.211,0.337-0.381,0.571-0.508c0.234-0.127,0.523-0.191,0.868-0.191s0.634,0.059,0.869,0.178
				c0.233,0.118,0.421,0.282,0.561,0.493c0.141,0.211,0.241,0.459,0.301,0.746c0.06,0.287,0.09,0.595,0.09,0.929
				C49.283,14.789,49.252,15.09,49.191,15.375z"/>
			<path opacity="0.35" clip-path="url(#SVGID_10_)" fill="#EF834A" d="M49.479,12.224c-0.217-0.25-0.489-0.439-0.816-0.57
				c-0.327-0.13-0.71-0.195-1.151-0.195c-0.457,0-0.855,0.07-1.198,0.216c-0.343,0.144-0.627,0.348-0.856,0.612
				c-0.228,0.266-0.399,0.588-0.514,0.967c-0.114,0.378-0.171,0.799-0.171,1.263c0,0.485,0.053,0.914,0.158,1.286
				c0.104,0.373,0.264,0.686,0.479,0.937c0.214,0.251,0.485,0.442,0.814,0.574c0.328,0.132,0.717,0.198,1.167,0.198
				c0.457,0,0.856-0.071,1.198-0.216c0.343-0.144,0.626-0.349,0.853-0.618c0.227-0.268,0.397-0.594,0.511-0.975
				s0.171-0.811,0.171-1.286s-0.053-0.897-0.16-1.266C49.859,12.783,49.696,12.474,49.479,12.224z M49.191,15.375
				c-0.063,0.285-0.165,0.535-0.31,0.752s-0.336,0.389-0.573,0.516c-0.237,0.127-0.53,0.191-0.878,0.191
				c-0.351,0-0.643-0.058-0.875-0.175c-0.232-0.117-0.418-0.281-0.557-0.491c-0.139-0.21-0.237-0.461-0.295-0.752
				c-0.059-0.291-0.087-0.609-0.087-0.954c0-0.313,0.031-0.61,0.094-0.894c0.063-0.283,0.168-0.531,0.314-0.743
				c0.146-0.211,0.337-0.381,0.571-0.508c0.234-0.127,0.523-0.191,0.868-0.191s0.634,0.059,0.869,0.178
				c0.233,0.118,0.421,0.282,0.561,0.493c0.141,0.211,0.241,0.459,0.301,0.746c0.06,0.287,0.09,0.595,0.09,0.929
				C49.283,14.789,49.252,15.09,49.191,15.375z"/>
		</g>
		<path fill="#EF834A" d="M63.521,13.15c-0.106-0.367-0.269-0.677-0.485-0.927c-0.217-0.25-0.49-0.439-0.817-0.57
			c-0.326-0.13-0.71-0.195-1.151-0.195c-0.378,0-0.714,0.051-1.013,0.15c-0.102,0.068,1.001,0.392,0.964,0.517
			c0.345,0,0.634,0.059,0.869,0.177c0.233,0.119,0.421,0.283,0.561,0.493c0.14,0.211,0.24,0.459,0.301,0.746
			c0.06,0.287,0.089,0.595,0.089,0.929c0,0.317-0.03,0.619-0.092,0.904s-0.165,0.535-0.31,0.752
			c-0.144,0.217-0.335,0.389-0.572,0.516c-0.237,0.127-0.529,0.191-0.878,0.191c-0.35,0-0.642-0.058-0.875-0.175
			c-0.233-0.117-0.418-0.281-0.557-0.491c-0.139-0.21-0.237-0.461-0.295-0.752c-0.059-0.291-0.088-0.609-0.088-0.954
			c0-0.313,0.031-0.61,0.095-0.894c0.063-0.283,0.173-0.527,0.314-0.743c0.051-0.079,0.07-0.113,0.07-0.113
			c0.067-0.135-0.443-0.269-0.688-0.357c-0.202,0.252-0.357,0.55-0.462,0.898c-0.114,0.378-0.171,0.799-0.171,1.263
			c0,0.485,0.052,0.914,0.157,1.286c0.105,0.373,0.265,0.686,0.479,0.937c0.215,0.251,0.486,0.442,0.814,0.574
			c0.328,0.132,0.718,0.198,1.168,0.198c0.457,0,0.856-0.071,1.198-0.216c0.343-0.144,0.627-0.349,0.854-0.618
			c0.227-0.268,0.397-0.594,0.511-0.975s0.171-0.811,0.171-1.286S63.628,13.519,63.521,13.15z"/>
		<path fill="#EF834A" d="M54.384,17.549c-0.602,0-1.112-0.165-1.523-0.493c-1.08-0.862-1.01-2.523-1.007-2.593
			c0.197-3.012,2.142-3.012,2.782-3.012c1.509,0,1.898,0.934,1.744,1.345c-0.061,0.163-0.625,0.232-0.68,0.059
			c-0.165-0.515-0.589-0.668-1.14-0.683c-0.55-0.014-1.821,0-1.975,2.331c0,0.008-0.053,1.366,0.74,1.997
			c0.443,0.353,1.1,0.423,1.947,0.204c0.161-0.041,0.912-0.125,0.931-1.246c0.008-0.502-0.244-0.69-0.382-0.748
			c-0.11-0.045-0.216-0.123-0.752,0.024c-0.199,0.053-0.641-0.443-0.388-0.554c0.809-0.356,1.315-0.08,1.531,0.031
			c0.414,0.212,0.648,0.66,0.654,1.226c0.017,1.555-0.968,1.821-1.425,1.968C55.062,17.501,54.71,17.549,54.384,17.549z"/>
		<path fill="#EF834A" d="M40.651,17.549c-0.604,0-1.115-0.165-1.525-0.493c-1.08-0.862-1.01-2.523-1.006-2.593
			c0.197-3.012,2.142-3.012,2.781-3.012c1.508,0,1.898,0.934,1.744,1.345c-0.062,0.163-0.626,0.232-0.681,0.059
			c-0.164-0.515-0.588-0.668-1.138-0.683c-0.55-0.013-1.822,0-1.975,2.332c-0.001,0.008-0.053,1.366,0.74,1.997
			c0.444,0.353,1.1,0.423,1.947,0.204c0.161-0.041,0.912-0.125,0.931-1.246c0.009-0.502-0.245-0.69-0.382-0.748
			c-0.11-0.045-0.216-0.123-0.753,0.024c-0.199,0.053-0.64-0.444-0.387-0.554c0.808-0.356,1.313-0.08,1.531,0.031
			c0.412,0.212,0.647,0.66,0.653,1.226c0.016,1.555-0.967,1.821-1.424,1.968C41.328,17.501,40.975,17.549,40.651,17.549z"/>
	</g>
	<path fill="#52B88C" d="M16.864,12.756c-0.17-0.407-0.359-0.817-0.577-1.232c-0.365-0.699-0.767-1.339-1.161-1.906
		c-1.479,1.715-2.717,2.641-3.652,3.138c-0.447,0.237-0.824,0.378-1.125,0.46c-0.127,0.692-0.197,1.404-0.197,2.134
		c0,1.367,0.237,2.68,0.668,3.904c1.173-0.491,4.13-1.952,6.558-5.006C17.243,13.757,17.072,13.26,16.864,12.756z"/>
	<path fill="#52B88C" d="M22.328,3.373c-0.258,0-0.513,0.011-0.767,0.027c-2.173,0.32-3.32,2.098-3.375,2.185
		c-0.729,1.155-1.42,2.13-2.073,2.959c0.475,0.659,0.969,1.425,1.417,2.275c0.306,0.582,0.566,1.161,0.782,1.736
		c0.041,0.11,0.08,0.219,0.119,0.328c0.072-0.108,0.145-0.217,0.214-0.328c0.25-0.396,0.482-0.803,0.697-1.219
		c0.406-0.792,0.755-1.632,1.036-2.498c0.91-2.807,2.176-4.612,3.763-5.344C23.55,3.405,22.944,3.373,22.328,3.373z"/>
	<path fill="#52B88C" d="M17.678,15.832c-2.052,2.313-4.3,3.632-5.678,4.288c-0.267,0.128-0.534,0.233-0.727,0.313
		c0.223,0.567,0.568,1.06,0.899,1.588c0.281,0.419,0.593,0.858,0.924,1.238c0.318,0.311,0.645,0.465,0.968,0.479
		c0.685,0.026,1.535-0.77,2.452-2.313c0.254-0.426,0.464-0.861,0.639-1.304C17.697,18.761,17.871,17.329,17.678,15.832z"/>
	<path fill="#EF834A" d="M19.029,20.235c-0.087-0.287-0.168-0.572-0.246-0.856c-0.07,0.288-0.152,0.573-0.25,0.856
		c-0.222,0.643-0.515,1.271-0.879,1.879c-0.94,1.57-1.854,2.489-2.78,2.777c2.051,1.594,4.636,2.547,7.448,2.547
		c0.238,0,0.474-0.009,0.708-0.022C21.193,26.095,19.899,23.125,19.029,20.235z"/>
	<path fill="#52B88C" d="M17.111,5.01c0.023-0.037,0.219-0.333,0.582-0.719c-1.279,0.506-2.476,1.26-3.423,2.116
		c-0.033,0.03-0.013,0.08,0.003,0.096c0.265,0.271,0.582,0.612,0.983,1.091C15.84,6.861,16.458,6.01,17.111,5.01z"/>
	<path fill="#52B88C" d="M14.225,8.657c-0.364-0.486-0.684-0.887-0.939-1.153c-0.086-0.089-0.088-0.056-0.168,0.022
		c-1.108,1.078-1.835,2.517-2.324,4.027C11.553,11.205,12.717,10.41,14.225,8.657z"/>
	<path fill="#EF834A" d="M28.955,20.318c0.003,0.087-0.146,0.223-0.295,0.23c-0.148,0.007-0.279-0.085-0.317-0.197
		c-0.044-0.127,0.141-0.267,0.29-0.275C28.781,20.069,28.951,20.188,28.955,20.318z"/>
	<g>
		<path fill="#EF834A" d="M34.356,12.749c-0.084-0.377-0.188-0.748-0.307-1.11c-0.917-2.775-2.825-5.108-5.311-6.587
			c-0.083-0.05-0.167-0.096-0.251-0.144c-0.801-0.393-2.167-1.003-3.532-0.434c-1.363,0.568-2.485,2.188-3.335,4.816
			c-0.305,0.945-0.685,1.864-1.128,2.729c-0.125,0.246-0.259,0.488-0.396,0.729c-0.319,0.555-0.666,1.095-1.041,1.612
			c0.208,1.216,0.644,3.456,1.339,5.718c0.834,2.717,2.044,5.462,3.689,6.5c0.537,0.337,1.129,0.487,1.708,0.398
			c0.825-0.15,2.395-0.975,2.886-1.944c0.19-0.375,0.213-0.729,0.067-1.056c-0.297-0.663-1.204-0.944-1.327-0.98
			c-2.242-0.906-2.318-1.192-2.399-1.492c-0.117-0.438-0.197-0.96,0.226-1.388c0.05-0.05,0.081-0.04,0.313,0.049
			c0.1,0.039,0.213,0.083,0.34,0.111c1.387,0.316,1.725-0.212,1.791-0.362c0.066-0.1,0.504-0.723,1.092-0.809
			c1.568-0.229,2.195,0.666,2.212,0.687c0.322,0.418,1.276,1.503,0.355,2.958c-0.253,0.399-0.438,0.598-0.724,0.655
			c-0.389,0.076-0.588-0.072-0.763-0.503c-0.246-0.603-0.083-1.927,0.196-2.454c0.107-0.202,0.059-0.245,0.004-0.262
			c-0.071-0.021-0.161,0.142-0.216,0.239c-0.251,0.438-0.45,1.475-0.363,2.306c0.105,0.99,1,1.662,1.85,0.895
			c0.981-1.029,1.785-2.226,2.355-3.548c0.037-0.086,0.071-0.175,0.105-0.262c0.741-1.842,0.897-3.401,0.846-5.063
			C34.6,14.068,34.503,13.399,34.356,12.749z M24.722,17.751c-1.738,0-3.147-1.396-3.147-3.118c0-0.897,0.384-1.704,0.997-2.272
			c0.563-0.523,1.318-0.846,2.151-0.846c0.833,0,1.588,0.323,2.152,0.846c0.611,0.568,0.997,1.375,0.997,2.272
			C27.871,16.354,26.461,17.751,24.722,17.751z"/>
	</g>
</g>
</svg>
